<?xml version="1.0" encoding="utf-8"?>
<!-- Generator: Adobe Illustrator 18.0.0, SVG Export Plug-In . SVG Version: 6.00 Build 0)  -->
<!DOCTYPE svg PUBLIC "-//W3C//DTD SVG 1.1//EN" "http://www.w3.org/Graphics/SVG/1.1/DTD/svg11.dtd" [
	<!ENTITY ns_flows "http://ns.adobe.com/Flows/1.0/">
	<!ENTITY ns_extend "http://ns.adobe.com/Extensibility/1.0/">
	<!ENTITY ns_ai "http://ns.adobe.com/AdobeIllustrator/10.0/">
	<!ENTITY ns_graphs "http://ns.adobe.com/Graphs/1.0/">
]>
<svg version="1.1" id="Layer_1" xmlns:x="&ns_extend;" xmlns:i="&ns_ai;" xmlns:graph="&ns_graphs;"
	 xmlns="http://www.w3.org/2000/svg" xmlns:xlink="http://www.w3.org/1999/xlink" xmlns:a="http://ns.adobe.com/AdobeSVGViewerExtensions/3.0/"
	 x="0px" y="0px" width="126.987px" height="43.417px" viewBox="0 0 126.987 43.417" enable-background="new 0 0 126.987 43.417"
	 xml:space="preserve">
<g id="XMLID_2642_">
	<defs>
		<rect id="XMLID_2646_" x="-1290.345" y="-805.178" width="528.224" height="628.402"/>
	</defs>
	<clipPath id="XMLID_1447_">
		<use xlink:href="#XMLID_2646_"  overflow="visible"/>
	</clipPath>
	<g clip-path="url(#XMLID_1447_)">
		
			<image overflow="visible" width="2576" height="1940" id="XMLID_4952_" xlink:href="Ingenia/Clientes/2016/Kids World /Catálogo/Links/PAGINA2.jpg"  transform="matrix(0.6168 0 0 0.6168 -1290.3468 -805.1796)">
		</image>
	</g>
</g>
<path id="XMLID_14939_" fill="#8DC63F" d="M104.572,3.172V3.143L63.493,3.382L22.414,3.143v0.029
	C11.22,3.575,2.313,11.81,2.399,21.857c0.084,10.046,9.128,18.131,20.326,18.346v0.029l20.403,0.014v0.028l20.365-0.014
	l20.365,0.014v-0.028l20.403-0.014l0.001-0.029c11.198-0.215,20.242-8.3,20.327-18.346C124.672,11.81,115.765,3.575,104.572,3.172z"
	/>
<rect id="XMLID_14929_" x="13.754" y="14.522" fill="none" width="99.48" height="14.374"/>
<text id="XMLID_14928_" transform="matrix(1 0 0 1 26.7402 24.8813)" fill="#FFFFFF" font-family="'Vanilla'" font-size="13.9621">Buy Now</text>
<g id="XMLID_1437_">
	<defs>
		<rect id="XMLID_1438_" x="-167.108" y="-441.797" width="280.342" height="333.509"/>
	</defs>
	<clipPath id="XMLID_1449_">
		<use xlink:href="#XMLID_1438_"  overflow="visible"/>
	</clipPath>
	<g clip-path="url(#XMLID_1449_)">
		
			<image overflow="visible" width="2576" height="1940" id="XMLID_1439_" xlink:href="Ingenia/Clientes/2016/Kids World /Catálogo/Links/PAGINA2.jpg"  transform="matrix(0.3273 0 0 0.3273 -446.2703 -441.7983)">
		</image>
	</g>
</g>
</svg>
