<?xml version="1.0" encoding="utf-8"?>
<!-- Generator: Adobe Illustrator 18.0.0, SVG Export Plug-In . SVG Version: 6.00 Build 0)  -->
<!DOCTYPE svg PUBLIC "-//W3C//DTD SVG 1.1//EN" "http://www.w3.org/Graphics/SVG/1.1/DTD/svg11.dtd" [
	<!ENTITY ns_flows "http://ns.adobe.com/Flows/1.0/">
	<!ENTITY ns_extend "http://ns.adobe.com/Extensibility/1.0/">
	<!ENTITY ns_ai "http://ns.adobe.com/AdobeIllustrator/10.0/">
	<!ENTITY ns_graphs "http://ns.adobe.com/Graphs/1.0/">
]>
<svg version="1.1" id="Layer_1" xmlns:x="&ns_extend;" xmlns:i="&ns_ai;" xmlns:graph="&ns_graphs;"
	 xmlns="http://www.w3.org/2000/svg" xmlns:xlink="http://www.w3.org/1999/xlink" xmlns:a="http://ns.adobe.com/AdobeSVGViewerExtensions/3.0/"
	 x="0px" y="0px" width="126.987px" height="43.417px" viewBox="0 0 126.987 43.417" enable-background="new 0 0 126.987 43.417"
	 xml:space="preserve">
<g id="XMLID_2642_">
	<defs>
		<rect id="XMLID_2646_" x="-1105.264" y="-807.608" width="528.224" height="628.402"/>
	</defs>
	<clipPath id="XMLID_1447_">
		<use xlink:href="#XMLID_2646_"  overflow="visible"/>
	</clipPath>
	<g clip-path="url(#XMLID_1447_)">
		
			<image overflow="visible" width="2576" height="1940" id="XMLID_4952_" xlink:href="Ingenia/Clientes/2016/Kids World /Catálogo/Links/PAGINA2.jpg"  transform="matrix(0.6168 0 0 0.6168 -1105.2651 -807.6096)">
		</image>
	</g>
</g>
<g id="XMLID_14927_">
	<path id="XMLID_14932_" fill="#3FB3C5" stroke="#3FB3C5" stroke-miterlimit="10" d="M104.572,3.172V3.143L63.493,3.382
		L22.414,3.143v0.029C11.22,3.575,2.313,11.81,2.399,21.857c0.084,10.046,9.128,18.131,20.326,18.346v0.029l20.403,0.014v0.028
		l20.365-0.014l20.365,0.014v-0.028l20.403-0.014l0.001-0.029c11.198-0.215,20.242-8.3,20.327-18.346
		C124.672,11.81,115.765,3.575,104.572,3.172z"/>
	<g>
		<path fill="#FFFFFF" d="M50.285,19.206c-0.224,0.837-0.488,1.666-0.796,2.484l-0.949,2.556c-0.53,1.415-1.178,2.676-1.94,3.783
			c-0.326,0.326-0.54,0.521-0.643,0.587c-0.224,0.14-0.503,0.19-0.838,0.153c-0.559-0.065-1.019-0.256-1.382-0.572
			c-0.298-0.261-0.601-0.675-0.907-1.242c-0.382-0.745-0.661-1.304-0.838-1.676c-0.773-1.508-1.531-3.421-2.276-5.738
			c-0.316-0.986-0.461-1.802-0.433-2.443c0.019-0.484,0.047-0.801,0.084-0.949c0.177-0.782,0.628-1.22,1.354-1.312
			c0.409-0.047,0.786,0.022,1.131,0.209c0.67,0.363,1.089,1.602,1.256,3.714c0.075,0.865,0.257,1.834,0.545,2.904
			c0.13,0.475,0.424,1.415,0.88,2.82c0.13,0.4,0.219,0.601,0.265,0.601c0.019,0,0.028-0.042,0.028-0.126
			c0.466,0.158,1.015-1.136,1.647-3.882c0.056-0.223,0.205-1.061,0.447-2.513c0.177-1.08,0.367-1.885,0.572-2.415
			c0.261-0.689,0.646-1.127,1.158-1.312c0.233-0.084,0.456-0.126,0.671-0.126c0.195,0,0.358,0.037,0.488,0.111
			c0.567,0.308,0.861,0.913,0.88,1.815C50.709,17.261,50.574,18.116,50.285,19.206z"/>
		<path fill="#FFFFFF" d="M52.756,19.289c-0.381-0.167-0.655-0.344-0.823-0.53c-0.195-0.224-0.293-0.525-0.293-0.907
			c0-0.149,0.019-0.335,0.056-0.559c0.093-0.577,0.276-1.006,0.552-1.284c0.274-0.279,0.695-0.419,1.264-0.419
			c0.223,0,0.423,0.014,0.6,0.042c0.671,0.103,1.08,0.539,1.229,1.312c0.057,0.289,0.084,0.55,0.084,0.782
			c0,0.354-0.074,0.638-0.224,0.852c-0.418,0.596-0.921,0.885-1.508,0.866C53.272,19.434,52.961,19.383,52.756,19.289z
			 M53.831,21.314c0.121,0,0.298,0.02,0.531,0.057c0.399,0.083,0.67,0.572,0.81,1.466c0.084,0.521,0.106,1.145,0.069,1.871
			c-0.009,0.298,0.023,0.742,0.098,1.333c0.075,0.591,0.107,1.035,0.099,1.333c-0.02,0.494-0.22,0.824-0.601,0.992
			c-0.205,0.093-0.424,0.139-0.656,0.139c-0.224,0-0.452-0.037-0.685-0.111c-0.53-0.167-0.847-0.582-0.949-1.242
			c-0.047-0.252-0.047-0.819,0-1.704c0.065-1.349,0.111-2.122,0.14-2.317c0.148-1.079,0.479-1.676,0.991-1.787
			C53.696,21.323,53.748,21.314,53.831,21.314z"/>
		<path fill="#FFFFFF" d="M66.118,18.033c0,0.409-0.042,0.875-0.126,1.396l-0.293,4.091c-0.121,1.667-0.438,2.867-0.95,3.603
			c-0.697,1.015-1.88,1.484-3.546,1.41c-2.672-0.111-4.138-1.178-4.398-3.197c-0.046-0.354-0.069-0.661-0.069-0.922
			c0-1.47,0.567-2.434,1.703-2.89c0.419-0.168,0.843-0.251,1.271-0.251c1.015,0,2.104,0.446,3.268,1.34
			c-0.131-2.085-0.195-3.63-0.195-4.636c0-0.734,0.037-1.21,0.111-1.424c0.167-0.475,0.559-0.772,1.173-0.894
			c0.103-0.019,0.209-0.027,0.321-0.027c0.465,0,0.894,0.228,1.284,0.684C65.969,16.669,66.118,17.242,66.118,18.033z
			 M60.826,26.005c0.307,0,0.623-0.153,0.949-0.461c0.261-0.251,0.391-0.488,0.391-0.712c0-0.288-0.204-0.562-0.614-0.823
			c-0.325-0.205-0.633-0.308-0.921-0.308c-0.326,0-0.605,0.149-0.838,0.447c-0.177,0.224-0.266,0.446-0.266,0.67
			c0,0.298,0.173,0.587,0.517,0.865C60.305,25.898,60.565,26.005,60.826,26.005z"/>
		<path fill="#FFFFFF" d="M74.061,22.794c-0.549,0.391-1.182,0.586-1.898,0.586c-0.745,0-1.573-0.199-2.485-0.6
			c-0.028,0.148-0.042,0.303-0.042,0.46c0,0.419,0.103,0.885,0.308,1.396c0.325,0.81,0.776,1.243,1.354,1.299
			c0.689,0.074,1.378,0.005,2.066-0.21c0.121-0.037,0.252-0.056,0.392-0.056c0.465,0,0.721,0.33,0.768,0.991
			c0.065,0.819-0.493,1.42-1.676,1.802c-0.456,0.148-0.907,0.223-1.354,0.223c-0.689,0-1.373-0.186-2.053-0.559
			c-1.117-0.614-1.839-2.378-2.164-5.291c-0.056-0.493-0.084-0.996-0.084-1.508c0-2.104,0.609-3.579,1.829-4.426
			c0.614-0.521,1.41-0.782,2.388-0.782c0.512,0,1.061,0.065,1.647,0.195c1.731,0.391,2.606,1.378,2.625,2.96
			C75.7,20.839,75.16,22.012,74.061,22.794z M70.445,19.96c0.01,0.307,0.128,0.565,0.356,0.774c0.228,0.21,0.495,0.323,0.803,0.342
			c0.466,0.028,0.838-0.083,1.117-0.335c0.148-0.13,0.224-0.312,0.224-0.544c0-0.224-0.065-0.493-0.196-0.811
			c-0.195-0.483-0.483-0.726-0.865-0.726c-0.14,0-0.308,0.042-0.503,0.126C70.739,19.057,70.427,19.448,70.445,19.96z"/>
		<path fill="#FFFFFF" d="M83.36,17c1.154,0.382,1.913,1.559,2.275,3.532c0.065,0.354,0.173,1.257,0.321,2.708
			c0.019,0.187,0.028,0.396,0.028,0.629c0,0.865-0.188,1.688-0.565,2.464c-0.377,0.777-0.962,1.366-1.753,1.767
			c-0.744,0.382-1.572,0.549-2.484,0.503c-0.987-0.057-1.76-0.252-2.318-0.587c-0.633-0.391-1.084-0.894-1.354-1.508
			c-0.204-0.466-0.386-1.224-0.544-2.275c-0.149-0.969-0.224-1.755-0.224-2.36c0-0.279,0.014-0.512,0.042-0.698
			c0.13-0.874,0.246-1.475,0.349-1.801c0.187-0.623,0.479-1.149,0.88-1.577c0.707-0.764,1.927-1.104,3.658-1.02
			C82.462,16.814,83.025,16.888,83.36,17z M83.067,21.97c-0.065-0.754-0.173-1.326-0.321-1.717c-0.261-0.651-0.68-0.982-1.257-0.991
			c-0.772-0.01-1.299,0.19-1.577,0.601c-0.233,0.344-0.345,0.921-0.336,1.73c0.019,1.043,0.052,1.918,0.098,2.625
			c0.065,1.015,0.4,1.639,1.006,1.871c0.214,0.084,0.433,0.126,0.656,0.126c0.391,0,0.777-0.126,1.159-0.377
			c0.483-0.316,0.726-0.856,0.726-1.62c0-0.103-0.01-0.279-0.028-0.53L83.067,21.97z"/>
	</g>
</g>
<g id="XMLID_1437_">
	<defs>
		<rect id="XMLID_1438_" x="17.974" y="-444.228" width="280.342" height="333.509"/>
	</defs>
	<clipPath id="XMLID_1449_">
		<use xlink:href="#XMLID_1438_"  overflow="visible"/>
	</clipPath>
	<g clip-path="url(#XMLID_1449_)">
		
			<image overflow="visible" width="2576" height="1940" id="XMLID_1439_" xlink:href="Ingenia/Clientes/2016/Kids World /Catálogo/Links/PAGINA2.jpg"  transform="matrix(0.3273 0 0 0.3273 -261.1885 -444.2284)">
		</image>
	</g>
</g>
</svg>
