<?xml version="1.0" encoding="utf-8"?>
<!-- Generator: Adobe Illustrator 16.0.0, SVG Export Plug-In . SVG Version: 6.00 Build 0)  -->
<!DOCTYPE svg PUBLIC "-//W3C//DTD SVG 1.1//EN" "http://www.w3.org/Graphics/SVG/1.1/DTD/svg11.dtd">
<svg version="1.1" id="Layer_1" xmlns="http://www.w3.org/2000/svg" xmlns:xlink="http://www.w3.org/1999/xlink" x="0px" y="0px"
	 width="28px" height="28px" viewBox="0 0 28 28" enable-background="new 0 0 28 28" xml:space="preserve">
<g id="XMLID_14899_">
	<path id="XMLID_14903_" fill-rule="evenodd" clip-rule="evenodd" fill="#FFFFFF" d="M21.28,10.926H6.72
		c-0.78,0-1.418-0.638-1.418-1.419l0,0c0-0.779,0.638-1.418,1.418-1.418H21.28c0.78,0,1.418,0.639,1.418,1.418l0,0
		C22.698,10.288,22.061,10.926,21.28,10.926z"/>
	<path id="XMLID_14902_" fill-rule="evenodd" clip-rule="evenodd" fill="#FFFFFF" d="M21.28,15.418H6.72
		c-0.78,0-1.418-0.638-1.418-1.418l0,0c0-0.78,0.638-1.418,1.418-1.418H21.28c0.78,0,1.418,0.638,1.418,1.418l0,0
		C22.698,14.78,22.061,15.418,21.28,15.418z"/>
	<path id="XMLID_14901_" fill-rule="evenodd" clip-rule="evenodd" fill="#FFFFFF" d="M21.28,19.911H6.72
		c-0.78,0-1.418-0.639-1.418-1.418l0,0c0-0.78,0.638-1.418,1.418-1.418H21.28c0.78,0,1.418,0.638,1.418,1.418l0,0
		C22.698,19.272,22.061,19.911,21.28,19.911z"/>
</g>
</svg>
