<?xml version="1.0" encoding="utf-8"?>
<!-- Generator: Adobe Illustrator 16.0.0, SVG Export Plug-In . SVG Version: 6.00 Build 0)  -->
<!DOCTYPE svg PUBLIC "-//W3C//DTD SVG 1.1//EN" "http://www.w3.org/Graphics/SVG/1.1/DTD/svg11.dtd">
<svg version="1.1" id="Layer_1" xmlns="http://www.w3.org/2000/svg" xmlns:xlink="http://www.w3.org/1999/xlink" x="0px" y="0px"
	 width="28px" height="28px" viewBox="0 0 28 28" enable-background="new 0 0 28 28" xml:space="preserve">
<path id="XMLID_14904_" fill-rule="evenodd" clip-rule="evenodd" fill="#FFFFFF" d="M8.525,11.289c0.646,0,1.239,0.22,1.703,0.593
	l6.723-4.684c-0.114-0.297-0.19-0.624-0.19-0.974c0-1.498,1.225-2.722,2.723-2.722s2.706,1.224,2.706,2.722
	s-1.208,2.706-2.706,2.706c-0.639,0-1.218-0.204-1.681-0.577l-6.738,4.692c0.123,0.304,0.176,0.615,0.176,0.957
	c0,0.381-0.068,0.73-0.206,1.059l6.67,4.668c0.479-0.402,1.11-0.662,1.779-0.662c1.498,0,2.706,1.21,2.706,2.708
	c0,1.505-1.208,2.722-2.706,2.722s-2.723-1.217-2.723-2.722c0-0.297,0.061-0.593,0.152-0.859l-6.761-4.729
	c-0.456,0.334-1.011,0.531-1.627,0.531c-1.506,0-2.715-1.217-2.715-2.715C5.811,12.499,7.02,11.289,8.525,11.289z"/>
</svg>
