<?xml version="1.0" encoding="utf-8"?>
<!-- Generator: Adobe Illustrator 16.0.0, SVG Export Plug-In . SVG Version: 6.00 Build 0)  -->
<!DOCTYPE svg PUBLIC "-//W3C//DTD SVG 1.1//EN" "http://www.w3.org/Graphics/SVG/1.1/DTD/svg11.dtd">
<svg version="1.1" id="Layer_1" xmlns="http://www.w3.org/2000/svg" xmlns:xlink="http://www.w3.org/1999/xlink" x="0px" y="0px"
	 width="28px" height="28px" viewBox="0 0 28 28" enable-background="new 0 0 28 28" xml:space="preserve">
<g id="XMLID_14905_">
	<g id="XMLID_14913_">
		<path id="XMLID_14916_" fill-rule="evenodd" clip-rule="evenodd" fill="#FFFFFF" d="M5.55,12.652v12.25h6.376v-7.51
			c0.216-0.607,1.304-1.299,2.627-1.359c1.187,0.041,2.179,0.896,2.338,1.359v7.51h6.345V12.826l-9.113-5.262L5.55,12.652z"/>
		<path id="XMLID_14915_" fill-rule="evenodd" clip-rule="evenodd" fill="#FFFFFF" d="M3.505,13.113l10.619-6.229l10.521,5.977
			c0.274,0.197,0.826,0.092,1.046-0.209c0.239-0.305,0.064-0.844-0.141-0.988L14.014,5.102L2.504,11.85
			c-0.372,0.277-0.41,0.562-0.102,1.133C2.736,13.471,3.174,13.336,3.505,13.113z"/>
		<polygon id="XMLID_14914_" fill-rule="evenodd" clip-rule="evenodd" fill="#FFFFFF" points="18.751,3.098 18.751,8.113 
			23.306,10.74 23.306,3.146 		"/>
	</g>
	<path id="XMLID_14906_" fill-rule="evenodd" clip-rule="evenodd" fill="#FFFFFF" d="M14.211,14.086c1.11,0,2.011-0.902,2.011-2.012
		c0-1.102-0.901-2.012-2.011-2.012c-1.106,0-2.011,0.91-2.011,2.012C12.2,13.184,13.105,14.086,14.211,14.086z"/>
</g>
</svg>
