<?xml version="1.0" encoding="utf-8"?>
<!-- Generator: Adobe Illustrator 16.0.0, SVG Export Plug-In . SVG Version: 6.00 Build 0)  -->
<!DOCTYPE svg PUBLIC "-//W3C//DTD SVG 1.1//EN" "http://www.w3.org/Graphics/SVG/1.1/DTD/svg11.dtd">
<svg version="1.1" id="Layer_1" xmlns="http://www.w3.org/2000/svg" xmlns:xlink="http://www.w3.org/1999/xlink" x="0px" y="0px"
	 width="28px" height="28px" viewBox="0 0 28 28" enable-background="new 0 0 28 28" xml:space="preserve">
<g id="XMLID_14885_">
	<path id="XMLID_14886_" fill="#FFFFFF" d="M15.838,10.824v9.764c0,0.869,0.101,1.425,0.303,1.666
		c0.202,0.242,0.598,0.381,1.186,0.416v0.475h-6.654V22.67c0.545-0.018,0.949-0.176,1.212-0.475
		c0.176-0.202,0.264-0.738,0.264-1.607v-7.194c0-0.87-0.101-1.425-0.303-1.667c-0.203-0.242-0.593-0.381-1.173-0.415v-0.487H15.838z
		 M13.993,4.855c0.571,0,1.054,0.199,1.45,0.6c0.395,0.399,0.593,0.881,0.593,1.442s-0.199,1.041-0.6,1.437
		c-0.4,0.395-0.881,0.593-1.443,0.593c-0.562,0-1.041-0.198-1.436-0.593c-0.395-0.396-0.593-0.875-0.593-1.437
		s0.198-1.043,0.593-1.442C12.953,5.055,13.432,4.855,13.993,4.855z"/>
</g>
</svg>
