<?xml version="1.0" encoding="utf-8"?>
<!-- Generator: Adobe Illustrator 16.0.0, SVG Export Plug-In . SVG Version: 6.00 Build 0)  -->
<!DOCTYPE svg PUBLIC "-//W3C//DTD SVG 1.1//EN" "http://www.w3.org/Graphics/SVG/1.1/DTD/svg11.dtd">
<svg version="1.1" id="Layer_1" xmlns="http://www.w3.org/2000/svg" xmlns:xlink="http://www.w3.org/1999/xlink" x="0px" y="0px"
	 width="101.053px" height="40.464px" viewBox="0 0 101.053 40.464" enable-background="new 0 0 101.053 40.464"
	 xml:space="preserve">
<g id="XMLID_2578_">
	<path id="XMLID_14881_" fill="#3C9BA5" d="M70.101,37.488c0-0.355,0.127-0.657,0.38-0.909c0.253-0.251,0.557-0.377,0.912-0.377
		c0.35,0,0.649,0.126,0.898,0.377c0.248,0.252,0.373,0.554,0.373,0.909c0,0.359-0.123,0.663-0.369,0.911
		c-0.247,0.249-0.547,0.374-0.902,0.374c-0.363,0-0.67-0.125-0.918-0.374C70.225,38.151,70.101,37.848,70.101,37.488z"/>
	<path id="XMLID_14879_" fill="#3C9BA5" d="M27.431,23.442h-0.812c-0.556,0-0.964-0.087-1.226-0.261
		c-0.261-0.173-0.392-0.442-0.392-0.809c0-0.365,0.132-0.638,0.396-0.816c0.264-0.178,0.671-0.267,1.222-0.267h1.694
		c0.574,0,0.986,0.12,1.236,0.361c0.25,0.24,0.375,0.634,0.375,1.18c0,1.44-0.434,2.607-1.302,3.503
		c-0.868,0.896-2.007,1.344-3.419,1.344c-1.421,0-2.583-0.498-3.485-1.493s-1.354-2.284-1.354-3.867
		c0-1.635,0.462-2.934,1.385-3.898s2.165-1.448,3.725-1.448c1.032,0,1.911,0.214,2.635,0.639c0.724,0.427,1.086,0.915,1.086,1.466
		c0,0.287-0.098,0.539-0.292,0.757c-0.195,0.218-0.423,0.326-0.688,0.326c-0.171,0-0.553-0.164-1.146-0.492
		c-0.592-0.329-1.15-0.494-1.673-0.494c-0.782,0-1.401,0.277-1.857,0.83s-0.684,1.312-0.684,2.273c0,0.978,0.229,1.754,0.688,2.333
		c0.458,0.579,1.072,0.868,1.84,0.868c0.611,0,1.102-0.184,1.472-0.552C27.225,24.558,27.417,24.062,27.431,23.442z"/>
	<path id="XMLID_14876_" fill="#3C9BA5" d="M33.436,23.386v2.487c0,0.55-0.095,0.96-0.284,1.229
		c-0.19,0.268-0.479,0.402-0.868,0.402s-0.678-0.135-0.868-0.402c-0.19-0.269-0.285-0.679-0.285-1.229v-6.985
		c0-0.615,0.118-1.039,0.354-1.271c0.236-0.231,0.648-0.347,1.236-0.347h1.791c1.199,0,2.141,0.283,2.826,0.85
		c0.685,0.567,1.028,1.337,1.028,2.31c0,0.722-0.214,1.324-0.643,1.809c-0.428,0.483-1.02,0.789-1.774,0.919l1.819,2.021
		c0.231,0.254,0.404,0.492,0.517,0.712c0.114,0.22,0.17,0.423,0.17,0.607c0,0.306-0.104,0.562-0.313,0.771
		c-0.208,0.209-0.469,0.312-0.784,0.312c-0.204,0-0.399-0.062-0.587-0.188c-0.187-0.125-0.404-0.338-0.649-0.639L33.436,23.386z
		 M33.436,21.846h1.062c0.467,0,0.829-0.109,1.083-0.327c0.254-0.217,0.382-0.524,0.382-0.923c0-0.384-0.125-0.681-0.375-0.892
		s-0.604-0.316-1.062-0.316h-1.09V21.846z"/>
	<path id="XMLID_14863_" fill="#3C9BA5" d="M41.275,25.477l-0.347,1.021c-0.111,0.338-0.261,0.596-0.448,0.773
		c-0.188,0.18-0.406,0.269-0.656,0.269c-0.32,0-0.583-0.106-0.788-0.316c-0.206-0.21-0.309-0.476-0.309-0.795
		c0-0.13,0.009-0.25,0.027-0.361c0.019-0.11,0.047-0.213,0.084-0.306l2.632-7.145c0.189-0.513,0.426-0.89,0.711-1.132
		c0.284-0.24,0.635-0.36,1.051-0.36c0.394,0,0.735,0.115,1.024,0.344c0.289,0.229,0.512,0.562,0.67,0.997l2.562,7.262
		c0.051,0.152,0.089,0.289,0.114,0.409c0.025,0.121,0.039,0.227,0.039,0.319c0,0.32-0.107,0.58-0.319,0.781
		c-0.213,0.201-0.486,0.303-0.819,0.303c-0.297,0-0.543-0.094-0.739-0.278c-0.197-0.185-0.353-0.468-0.469-0.847l-0.285-0.938
		H41.275z M41.927,23.352h2.417l-1.167-3.748L41.927,23.352z"/>
	<path id="XMLID_14861_" fill="#3C9BA5" d="M52.689,17.271c0.546,0,0.955,0.089,1.229,0.267c0.273,0.179,0.409,0.45,0.409,0.816
		c0,0.356-0.135,0.622-0.406,0.798c-0.271,0.176-0.682,0.264-1.232,0.264h-1.875v1.806h1.618c0.55,0,0.961,0.088,1.232,0.264
		c0.271,0.176,0.406,0.443,0.406,0.806c0,0.361-0.135,0.628-0.406,0.802c-0.271,0.174-0.682,0.26-1.232,0.26h-1.618v2.521
		c0,0.55-0.095,0.96-0.284,1.229c-0.19,0.268-0.479,0.402-0.868,0.402c-0.389,0-0.678-0.135-0.868-0.402
		c-0.19-0.269-0.285-0.679-0.285-1.229v-6.985c0-0.615,0.118-1.039,0.354-1.271c0.236-0.231,0.648-0.347,1.236-0.347H52.689z"/>
	<path id="XMLID_14858_" fill="#3C9BA5" d="M54.945,22.331c0-1.596,0.457-2.887,1.372-3.87c0.914-0.983,2.112-1.476,3.592-1.476
		c1.486,0,2.687,0.492,3.604,1.479c0.916,0.985,1.375,2.274,1.375,3.866c0,1.602-0.457,2.894-1.372,3.874
		c-0.914,0.981-2.117,1.473-3.607,1.473s-2.69-0.491-3.6-1.473C55.4,25.225,54.945,23.933,54.945,22.331z M57.452,22.359
		c0,0.943,0.225,1.699,0.673,2.267c0.449,0.566,1.043,0.851,1.784,0.851c0.741,0,1.336-0.284,1.785-0.851
		c0.449-0.567,0.674-1.323,0.674-2.267c0-0.978-0.223-1.752-0.667-2.326c-0.445-0.574-1.042-0.861-1.792-0.861
		c-0.75,0-1.347,0.287-1.791,0.861S57.452,21.382,57.452,22.359z"/>
	<path id="XMLID_14856_" fill="#3C9BA5" d="M72.83,24.247c0,1.015-0.359,1.835-1.08,2.462c-0.72,0.628-1.667,0.941-2.843,0.941
		c-0.903,0-1.674-0.162-2.313-0.486c-0.638-0.324-0.958-0.704-0.958-1.139c0-0.311,0.104-0.561,0.309-0.751
		c0.206-0.188,0.482-0.283,0.83-0.283c0.171,0,0.53,0.085,1.076,0.256s1.006,0.257,1.381,0.257c0.324,0,0.595-0.1,0.812-0.298
		c0.218-0.199,0.327-0.446,0.327-0.743c0-0.319-0.112-0.576-0.333-0.771c-0.222-0.194-0.699-0.402-1.43-0.626
		c-1.06-0.314-1.801-0.688-2.222-1.12c-0.421-0.433-0.632-1.016-0.632-1.746c0-0.939,0.339-1.708,1.018-2.306
		c0.678-0.597,1.561-0.896,2.648-0.896c0.801,0,1.46,0.143,1.979,0.428c0.518,0.284,0.778,0.639,0.778,1.065
		c0,0.306-0.092,0.545-0.274,0.719c-0.183,0.173-0.437,0.26-0.76,0.26c-0.181,0-0.475-0.059-0.882-0.177
		c-0.407-0.118-0.715-0.177-0.923-0.177c-0.343,0-0.615,0.079-0.819,0.239c-0.203,0.159-0.306,0.369-0.306,0.629
		c0,0.411,0.449,0.758,1.347,1.041c0.208,0.064,0.37,0.115,0.486,0.152c0.968,0.324,1.673,0.732,2.118,1.226
		S72.83,23.512,72.83,24.247z"/>
	<path id="XMLID_14853_" fill="#3C9BA5" d="M24.287,28.618c0.64,0,1.206,0.058,1.696,0.172c0.491,0.116,0.925,0.293,1.303,0.532
		c0.663,0.424,1.184,1.011,1.564,1.758c0.38,0.749,0.57,1.57,0.57,2.463c0,1.58-0.438,2.83-1.316,3.752
		c-0.877,0.921-2.076,1.381-3.596,1.381h-2.093c-0.594,0-1.001-0.102-1.223-0.304c-0.221-0.203-0.332-0.583-0.332-1.14v-7.005
		c0-0.612,0.117-1.034,0.353-1.265c0.235-0.229,0.645-0.345,1.229-0.345H24.287z M23.154,36.556h1.043
		c0.917,0,1.602-0.251,2.055-0.754c0.454-0.501,0.681-1.259,0.681-2.271c0-0.931-0.231-1.626-0.694-2.088
		c-0.463-0.46-1.157-0.69-2.083-0.69h-1.001V36.556z"/>
	<path id="XMLID_14851_" fill="#3C9BA5" d="M34.877,28.618c0.543,0,0.951,0.088,1.223,0.266s0.407,0.447,0.407,0.812
		c0,0.354-0.134,0.619-0.404,0.794c-0.27,0.175-0.678,0.262-1.226,0.262h-1.865v1.796h1.61c0.547,0,0.957,0.089,1.226,0.263
		c0.269,0.176,0.404,0.442,0.404,0.802s-0.135,0.625-0.404,0.798c-0.27,0.173-0.679,0.259-1.226,0.259h-1.61v1.887h1.934
		c0.553,0,0.963,0.088,1.23,0.262c0.267,0.175,0.4,0.44,0.4,0.795c0,0.358-0.134,0.626-0.4,0.802
		c-0.267,0.175-0.677,0.262-1.23,0.262h-2.673c-0.594,0-1.001-0.102-1.223-0.304c-0.221-0.203-0.332-0.583-0.332-1.14v-7.005
		c0-0.612,0.118-1.034,0.353-1.265c0.235-0.229,0.645-0.345,1.229-0.345H34.877z"/>
	<path id="XMLID_14847_" fill="#3C9BA5" d="M44.479,35.561c0,1.008-0.358,1.825-1.074,2.448c-0.716,0.625-1.659,0.937-2.829,0.937
		c-0.897,0-1.665-0.162-2.3-0.483c-0.636-0.322-0.954-0.7-0.954-1.133c0-0.308,0.103-0.558,0.308-0.747
		c0.204-0.188,0.479-0.282,0.825-0.282c0.17,0,0.527,0.085,1.071,0.256c0.543,0.17,1.001,0.255,1.375,0.255
		c0.323,0,0.591-0.099,0.809-0.297c0.216-0.198,0.324-0.444,0.324-0.739c0-0.317-0.11-0.573-0.332-0.768
		c-0.221-0.192-0.695-0.399-1.423-0.621c-1.055-0.312-1.792-0.685-2.21-1.115c-0.419-0.431-0.629-1.01-0.629-1.738
		c0-0.934,0.337-1.698,1.012-2.293c0.675-0.594,1.554-0.891,2.636-0.891c0.797,0,1.453,0.141,1.969,0.425
		c0.516,0.283,0.773,0.637,0.773,1.061c0,0.304-0.091,0.542-0.273,0.715c-0.182,0.173-0.434,0.259-0.756,0.259
		c-0.18,0-0.472-0.059-0.877-0.176c-0.405-0.118-0.712-0.177-0.918-0.177c-0.341,0-0.613,0.08-0.815,0.238
		c-0.203,0.159-0.304,0.367-0.304,0.626c0,0.409,0.446,0.755,1.34,1.035c0.207,0.065,0.369,0.115,0.484,0.152
		c0.962,0.322,1.665,0.729,2.107,1.22C44.258,34.216,44.479,34.828,44.479,35.561z"/>
	<path id="XMLID_14845_" fill="#3C9BA5" d="M48.002,37.177c0,0.548-0.095,0.956-0.284,1.223s-0.477,0.4-0.864,0.4
		c-0.386,0-0.674-0.134-0.863-0.4s-0.283-0.675-0.283-1.223v-7.06c0-0.549,0.094-0.956,0.283-1.227
		c0.189-0.27,0.477-0.403,0.863-0.403c0.387,0,0.675,0.134,0.864,0.403c0.188,0.271,0.284,0.678,0.284,1.227V37.177z"/>
	<path id="XMLID_14843_" fill="#3C9BA5" d="M56.375,34.76h-0.808c-0.553,0-0.959-0.087-1.219-0.26s-0.39-0.441-0.39-0.804
		c0-0.365,0.131-0.636,0.394-0.812c0.263-0.177,0.667-0.266,1.216-0.266h1.686c0.571,0,0.981,0.119,1.229,0.358
		c0.249,0.239,0.374,0.631,0.374,1.175c0,1.432-0.432,2.594-1.295,3.485c-0.863,0.891-1.998,1.336-3.403,1.336
		c-1.414,0-2.569-0.495-3.467-1.484c-0.898-0.991-1.347-2.273-1.347-3.849c0-1.625,0.459-2.918,1.378-3.879
		c0.919-0.96,2.155-1.439,3.706-1.439c1.027,0,1.901,0.211,2.622,0.636c0.721,0.423,1.081,0.909,1.081,1.457
		c0,0.285-0.097,0.537-0.29,0.752c-0.194,0.218-0.421,0.325-0.684,0.325c-0.17,0-0.551-0.163-1.14-0.49
		c-0.59-0.326-1.145-0.49-1.665-0.49c-0.778,0-1.395,0.274-1.848,0.826c-0.454,0.549-0.681,1.304-0.681,2.262
		c0,0.971,0.228,1.746,0.684,2.321c0.457,0.575,1.066,0.863,1.831,0.863c0.607,0,1.096-0.184,1.464-0.549
		C56.169,35.868,56.361,35.377,56.375,34.76z"/>
	<path id="XMLID_14813_" fill="#3C9BA5" d="M62.35,37.177c0,0.548-0.094,0.956-0.283,1.223s-0.477,0.4-0.863,0.4
		c-0.387,0-0.675-0.134-0.864-0.4s-0.283-0.675-0.283-1.223v-7.142c0-0.517,0.087-0.901,0.263-1.155
		c0.175-0.253,0.442-0.38,0.801-0.38c0.23,0,0.439,0.057,0.626,0.17c0.187,0.112,0.383,0.303,0.59,0.569l4.228,5.589v-4.711
		c0-0.549,0.094-0.956,0.284-1.227c0.188-0.27,0.476-0.403,0.863-0.403c0.387,0,0.675,0.134,0.863,0.403
		c0.188,0.271,0.283,0.678,0.283,1.227v7.315c0,0.488-0.085,0.849-0.256,1.081c-0.17,0.232-0.435,0.35-0.794,0.35
		c-0.24,0-0.463-0.067-0.67-0.202c-0.208-0.133-0.422-0.345-0.643-0.635l-4.145-5.479V37.177z"/>
	<path id="XMLID_14806_" fill="#3C9BA5" d="M73.341,34.911c0-1.175,0.353-2.128,1.057-2.86c0.705-0.731,1.63-1.098,2.777-1.098
		c0.742,0,1.343,0.132,1.803,0.396c0.461,0.266,0.691,0.609,0.691,1.033c0,0.272-0.087,0.497-0.263,0.677
		c-0.174,0.18-0.396,0.27-0.663,0.27c-0.115,0-0.348-0.057-0.698-0.17c-0.35-0.112-0.64-0.169-0.871-0.169
		c-0.46,0-0.833,0.173-1.116,0.519c-0.283,0.346-0.425,0.799-0.425,1.361c0,0.585,0.145,1.044,0.435,1.377
		c0.291,0.335,0.687,0.502,1.188,0.502c0.244,0,0.535-0.057,0.874-0.17c0.339-0.113,0.559-0.169,0.66-0.169
		c0.244,0,0.449,0.094,0.614,0.28c0.166,0.186,0.249,0.415,0.249,0.687c0,0.409-0.251,0.761-0.752,1.05
		c-0.502,0.291-1.124,0.437-1.865,0.437c-1.096,0-1.986-0.366-2.67-1.097C73.683,37.038,73.341,36.085,73.341,34.911z"/>
	<path id="XMLID_14781_" fill="#3C9BA5" d="M80.063,34.911c0-1.16,0.355-2.115,1.067-2.863c0.712-0.749,1.616-1.123,2.712-1.123
		c1.1,0,2.003,0.373,2.708,1.119s1.057,1.702,1.057,2.867s-0.353,2.122-1.057,2.87c-0.705,0.749-1.607,1.122-2.708,1.122
		c-1.096,0-2-0.375-2.712-1.125C80.418,37.027,80.063,36.071,80.063,34.911z M82.37,34.884c0,0.571,0.136,1.03,0.408,1.378
		c0.271,0.348,0.626,0.521,1.064,0.521c0.437,0,0.792-0.175,1.063-0.525c0.271-0.35,0.407-0.808,0.407-1.374
		c0-0.549-0.139-0.997-0.418-1.344c-0.278-0.348-0.63-0.522-1.053-0.522c-0.434,0-0.787,0.174-1.061,0.519
		C82.507,33.882,82.37,34.331,82.37,34.884z"/>
	<path id="XMLID_12537_" fill="#3C9BA5" d="M88.711,37.149v-4.483c0-0.553,0.092-0.966,0.276-1.237
		c0.184-0.271,0.463-0.406,0.836-0.406c0.216,0,0.413,0.06,0.591,0.183c0.177,0.122,0.335,0.308,0.473,0.556
		c0.23-0.253,0.491-0.44,0.781-0.56c0.29-0.119,0.624-0.179,1.002-0.179c0.478,0,0.902,0.087,1.27,0.263
		c0.369,0.174,0.687,0.437,0.954,0.787c0.336-0.373,0.679-0.642,1.029-0.805c0.35-0.164,0.755-0.245,1.215-0.245
		c0.797,0,1.417,0.255,1.859,0.767c0.442,0.511,0.663,1.231,0.663,2.162v3.198c0,0.548-0.092,0.955-0.276,1.223
		c-0.185,0.267-0.465,0.401-0.842,0.401c-0.378,0-0.657-0.133-0.836-0.398c-0.18-0.265-0.27-0.674-0.27-1.226v-2.521
		c0-0.585-0.082-1.014-0.245-1.285s-0.42-0.407-0.77-0.407c-0.387,0-0.67,0.134-0.851,0.4c-0.179,0.268-0.269,0.688-0.269,1.265
		v2.549c0,0.548-0.093,0.955-0.276,1.223c-0.184,0.267-0.465,0.401-0.842,0.401c-0.378,0-0.659-0.135-0.843-0.401
		c-0.184-0.268-0.276-0.675-0.276-1.223v-2.521c0-0.59-0.081-1.019-0.242-1.289c-0.162-0.27-0.414-0.403-0.76-0.403
		c-0.386,0-0.669,0.134-0.85,0.4c-0.179,0.268-0.269,0.688-0.269,1.265v2.549c0,0.548-0.092,0.955-0.277,1.223
		c-0.184,0.267-0.465,0.401-0.842,0.401c-0.378,0-0.658-0.135-0.839-0.401C88.803,38.104,88.711,37.697,88.711,37.149z"/>
	<path id="XMLID_7810_" fill="#3C9BA5" d="M25.458,4.65c0,0,1.495-0.366,1.494-1.02C26.95,2.977,25.446,2.63,25.446,2.63
		L25.458,4.65z"/>
	<path id="XMLID_4960_" fill="#3C9BA5" d="M23.284,5.756l1.961-1.052L25.24,2.596l-1.941-1.071c0,0-1.107,0.712-1.107,2.174
		C22.191,5.031,23.284,5.756,23.284,5.756z"/>
	<g id="XMLID_2592_">
		<path id="XMLID_2610_" fill="#3C9BA5" d="M11.991,23.692c0.919,0.933,0.919,4.254,0,5.188L7.64,28.867
			c-0.471,0-0.854,0.491-0.854,0.953v3.074c0,0.463,0.383,0.838,0.854,0.838h4.863c0.472,0,0.855-0.375,0.855-0.838
			c0-4.701,0-6.014,0-10.715h5.394c0,4.701,0,5.984,0,10.715c0,3.377-2.8,6.117-6.249,6.117H7.64c-3.448,0-6.248-2.74-6.248-6.117
			V29.82c0-3.375,2.8-6.115,6.248-6.115L11.991,23.692z"/>
	</g>
	<g id="XMLID_2584_">
		<path id="XMLID_2585_" fill="#3C9BA5" d="M22.897,1.452c-1.093,0.746-1.566,3.198,0,4.3l-5.34,0.03
			c0.946,0.739,1.212,1.761,1.212,2.783v1.676c0,3.323-2.453,5.766-5.91,5.766h-4.61c-0.621,0-0.621,0.936,0,0.936h4.61
			c3.457,0,5.91,2.188,5.91,5.511H13.36c0-0.454-0.266-0.625-0.709-0.625H7.509c-5.999,0-7.653-4.657-4.55-7.583
			c-0.976-1.078-1.566-2.471-1.566-4.004V8.565c0-3.322,2.807-7.113,6.265-7.113C11.41,1.452,22.897,1.452,22.897,1.452z
			 M7.657,7.742C7.184,7.742,6.8,8.111,6.8,8.565v1.817c0,0.454,0.384,0.824,0.857,0.824h4.846c0.473,0,0.857-0.37,0.857-0.824
			V8.565c0-0.454-0.384-0.823-0.857-0.823H7.657z"/>
	</g>
</g>
</svg>
