<?xml version="1.0" encoding="utf-8"?>
<!-- Generator: Adobe Illustrator 18.0.0, SVG Export Plug-In . SVG Version: 6.00 Build 0)  -->
<!DOCTYPE svg PUBLIC "-//W3C//DTD SVG 1.1//EN" "http://www.w3.org/Graphics/SVG/1.1/DTD/svg11.dtd">
<svg version="1.1" id="Layer_1" height="40" width="200" xmlns="http://www.w3.org/2000/svg" xmlns:xlink="http://www.w3.org/1999/xlink" x="0px" y="0px"
	 viewBox="0 0 179.345 32.842" enable-background="new 0 0 179.345 32.842" xml:space="preserve">
<rect x="0" y="-1.1" fill="#3FB3C5" width="32.004" height="37.52"/>
<g>
	<path id="XMLID_21373_" fill-rule="evenodd" clip-rule="evenodd" fill="#FFFFFF" d="M11.27,22.438
		c-0.925-0.111-1.045-0.286-0.723-1.117c0.322-0.832,0.684-1.646,1.015-2.474c0.037-0.093,0.009-0.229-0.026-0.332
		c-0.999-2.899-1.999-5.801-3.016-8.695C8.464,9.659,8.286,9.492,8.123,9.422c-0.7-0.3-1.417-0.561-2.126-0.845
		C5.498,8.378,5.308,8.062,5.45,7.703c0.146-0.371,0.497-0.481,0.985-0.293c0.824,0.318,1.636,0.658,2.461,0.965
		c0.368,0.138,0.583,0.363,0.704,0.736c0.149,0.463,0.227,1.087,0.561,1.318c0.336,0.232,0.947,0.08,1.437,0.08
		c4.041,0.003,8.082,0.002,12.123,0.003c0.99,0,1.177,0.26,0.871,1.21c-0.786,2.454-1.586,4.903-2.352,7.36
		c-0.17,0.55-0.457,0.753-1.024,0.747c-2.87-0.02-5.74-0.002-8.608-0.019c-0.332-0.002-0.489,0.088-0.577,0.399
		c-0.102,0.372-0.245,0.731-0.39,1.155c0.247,0,0.431,0,0.616,0c2.936,0,5.875,0,8.812,0c0.152,0,0.341-0.053,0.449,0.018
		c0.202,0.131,0.46,0.311,0.506,0.515c0.068,0.306-0.187,0.479-0.505,0.498c-0.132,0.006-0.269,0.001-0.476,0.001
		c0.589,1.133,0.583,2.135-0.549,2.856c-0.69,0.441-1.56,0.32-2.166-0.233c-0.688-0.625-0.763-1.386-0.237-2.583
		c-1.279,0-2.542,0-3.852,0c0.565,1.113,0.55,2.127-0.616,2.841c-0.689,0.421-1.579,0.274-2.164-0.289
		C10.794,24.35,10.73,23.588,11.27,22.438z M10.532,11.776c0.14,0.415,0.254,0.8,0.4,1.169c0.036,0.088,0.174,0.186,0.263,0.186
		c1.025,0.012,2.052,0.009,3.085,0.009c0-0.502,0-0.928,0-1.364C13.021,11.776,11.807,11.776,10.532,11.776z M23.259,11.794
		c-1.224,0-2.394,0-3.569,0c0,0.457,0,0.874,0,1.347c0.988,0,1.95,0.006,2.911-0.01c0.102-0.002,0.259-0.11,0.296-0.206
		C23.035,12.565,23.135,12.192,23.259,11.794z M15.594,15.939c0.969,0,1.885,0,2.807,0c0-0.527,0-1.008,0-1.512
		c-0.947,0-1.865,0-2.807,0C15.594,14.941,15.594,15.425,15.594,15.939z M11.441,14.418c0.174,0.499,0.322,0.958,0.494,1.409
		c0.026,0.071,0.151,0.147,0.231,0.148c0.703,0.011,1.406,0.005,2.114,0.005c0-0.565,0-1.058,0-1.562
		C13.328,14.418,12.421,14.418,11.441,14.418z M19.69,15.986c0.31,0,0.578,0,0.847,0c1.5,0,1.5,0,1.844-1.484
		c0.005-0.016-0.005-0.032-0.011-0.077c-0.881,0-1.769,0-2.68,0C19.69,14.937,19.69,15.42,19.69,15.986z M18.404,11.784
		c-0.944,0-1.864,0-2.797,0c0,0.458,0,0.888,0,1.315c0.951,0,1.867,0,2.797,0C18.404,12.638,18.404,12.223,18.404,11.784z
		 M18.416,17.278c-0.967,0-1.884,0-2.806,0c0,0.448,0,0.859,0,1.261c0.96,0,1.878,0,2.806,0
		C18.416,18.108,18.416,17.72,18.416,17.278z M14.29,17.276c-0.622,0-1.217,0-1.857,0c0.137,0.393,0.246,0.747,0.388,1.087
		c0.04,0.096,0.18,0.204,0.28,0.209c0.385,0.026,0.769,0.011,1.19,0.011C14.29,18.124,14.29,17.713,14.29,17.276z M19.688,18.552
		c1.45,0.119,1.655-0.037,1.745-1.271c-0.577,0-1.159,0-1.745,0C19.688,17.724,19.688,18.123,19.688,18.552z M19.583,22.843
		c-0.445-0.001-0.817,0.355-0.826,0.792c-0.01,0.444,0.401,0.852,0.845,0.837c0.439-0.013,0.792-0.385,0.788-0.83
		C20.386,23.195,20.033,22.844,19.583,22.843z M13.557,23.67c0.011-0.446-0.335-0.814-0.78-0.828
		c-0.461-0.014-0.853,0.363-0.85,0.817c0.006,0.428,0.386,0.807,0.815,0.812C13.177,24.473,13.549,24.108,13.557,23.67z"/>
	<g>
		
		
	</g>
</g>
</svg>
