<?xml version="1.0" encoding="utf-8"?>
<!-- Generator: Adobe Illustrator 18.0.0, SVG Export Plug-In . SVG Version: 6.00 Build 0)  -->
<!DOCTYPE svg PUBLIC "-//W3C//DTD SVG 1.1//EN" "http://www.w3.org/Graphics/SVG/1.1/DTD/svg11.dtd">
<svg version="1.1" id="Layer_1" height="40" width="200" xmlns="http://www.w3.org/2000/svg" xmlns:xlink="http://www.w3.org/1999/xlink" x="0px" y="0px"
	 viewBox="0 0 179.345 32.842" enable-background="new 0 0 179.345 32.842" xml:space="preserve">
<rect x="0" y="-1.1" fill="#3FB3C5" width="182.004" height="37.52"/>
<g>
	<path id="XMLID_21373_" fill-rule="evenodd" clip-rule="evenodd" fill="#FFFFFF" d="M11.27,22.438
		c-0.925-0.111-1.045-0.286-0.723-1.117c0.322-0.832,0.684-1.646,1.015-2.474c0.037-0.093,0.009-0.229-0.026-0.332
		c-0.999-2.899-1.999-5.801-3.016-8.695C8.464,9.659,8.286,9.492,8.123,9.422c-0.7-0.3-1.417-0.561-2.126-0.845
		C5.498,8.378,5.308,8.062,5.45,7.703c0.146-0.371,0.497-0.481,0.985-0.293c0.824,0.318,1.636,0.658,2.461,0.965
		c0.368,0.138,0.583,0.363,0.704,0.736c0.149,0.463,0.227,1.087,0.561,1.318c0.336,0.232,0.947,0.08,1.437,0.08
		c4.041,0.003,8.082,0.002,12.123,0.003c0.99,0,1.177,0.26,0.871,1.21c-0.786,2.454-1.586,4.903-2.352,7.36
		c-0.17,0.55-0.457,0.753-1.024,0.747c-2.87-0.02-5.74-0.002-8.608-0.019c-0.332-0.002-0.489,0.088-0.577,0.399
		c-0.102,0.372-0.245,0.731-0.39,1.155c0.247,0,0.431,0,0.616,0c2.936,0,5.875,0,8.812,0c0.152,0,0.341-0.053,0.449,0.018
		c0.202,0.131,0.46,0.311,0.506,0.515c0.068,0.306-0.187,0.479-0.505,0.498c-0.132,0.006-0.269,0.001-0.476,0.001
		c0.589,1.133,0.583,2.135-0.549,2.856c-0.69,0.441-1.56,0.32-2.166-0.233c-0.688-0.625-0.763-1.386-0.237-2.583
		c-1.279,0-2.542,0-3.852,0c0.565,1.113,0.55,2.127-0.616,2.841c-0.689,0.421-1.579,0.274-2.164-0.289
		C10.794,24.35,10.73,23.588,11.27,22.438z M10.532,11.776c0.14,0.415,0.254,0.8,0.4,1.169c0.036,0.088,0.174,0.186,0.263,0.186
		c1.025,0.012,2.052,0.009,3.085,0.009c0-0.502,0-0.928,0-1.364C13.021,11.776,11.807,11.776,10.532,11.776z M23.259,11.794
		c-1.224,0-2.394,0-3.569,0c0,0.457,0,0.874,0,1.347c0.988,0,1.95,0.006,2.911-0.01c0.102-0.002,0.259-0.11,0.296-0.206
		C23.035,12.565,23.135,12.192,23.259,11.794z M15.594,15.939c0.969,0,1.885,0,2.807,0c0-0.527,0-1.008,0-1.512
		c-0.947,0-1.865,0-2.807,0C15.594,14.941,15.594,15.425,15.594,15.939z M11.441,14.418c0.174,0.499,0.322,0.958,0.494,1.409
		c0.026,0.071,0.151,0.147,0.231,0.148c0.703,0.011,1.406,0.005,2.114,0.005c0-0.565,0-1.058,0-1.562
		C13.328,14.418,12.421,14.418,11.441,14.418z M19.69,15.986c0.31,0,0.578,0,0.847,0c1.5,0,1.5,0,1.844-1.484
		c0.005-0.016-0.005-0.032-0.011-0.077c-0.881,0-1.769,0-2.68,0C19.69,14.937,19.69,15.42,19.69,15.986z M18.404,11.784
		c-0.944,0-1.864,0-2.797,0c0,0.458,0,0.888,0,1.315c0.951,0,1.867,0,2.797,0C18.404,12.638,18.404,12.223,18.404,11.784z
		 M18.416,17.278c-0.967,0-1.884,0-2.806,0c0,0.448,0,0.859,0,1.261c0.96,0,1.878,0,2.806,0
		C18.416,18.108,18.416,17.72,18.416,17.278z M14.29,17.276c-0.622,0-1.217,0-1.857,0c0.137,0.393,0.246,0.747,0.388,1.087
		c0.04,0.096,0.18,0.204,0.28,0.209c0.385,0.026,0.769,0.011,1.19,0.011C14.29,18.124,14.29,17.713,14.29,17.276z M19.688,18.552
		c1.45,0.119,1.655-0.037,1.745-1.271c-0.577,0-1.159,0-1.745,0C19.688,17.724,19.688,18.123,19.688,18.552z M19.583,22.843
		c-0.445-0.001-0.817,0.355-0.826,0.792c-0.01,0.444,0.401,0.852,0.845,0.837c0.439-0.013,0.792-0.385,0.788-0.83
		C20.386,23.195,20.033,22.844,19.583,22.843z M13.557,23.67c0.011-0.446-0.335-0.814-0.78-0.828
		c-0.461-0.014-0.853,0.363-0.85,0.817c0.006,0.428,0.386,0.807,0.815,0.812C13.177,24.473,13.549,24.108,13.557,23.67z"/>
	<g>
		<path fill="#FFFFFF" d="M40.808,13.71c0.494-1.976,1.014-3.09,1.56-3.341c0.399-0.182,0.767-0.273,1.105-0.273
			c0.624,0,1.144,0.403,1.56,1.209c0.338,0.65,0.542,1.764,0.611,3.342c0.069,1.576,0.117,2.76,0.143,3.549
			c0.06,1.309,0.078,2.266,0.052,2.873c-0.043,1.17-0.39,1.754-1.04,1.754c-0.156,0-0.334-0.051-0.533-0.155
			c-0.442-0.226-0.75-0.72-0.923-1.481c-0.07-0.312-0.143-0.924-0.221-1.834c-0.035-0.459-0.074-1.174-0.117-2.145
			c-0.026-0.607-0.022-1.785,0.013-3.536c-0.286,0.987-0.507,2.102-0.663,3.341c-0.416,3.354-0.797,5.117-1.144,5.291
			c-0.372,0.19-0.659,0.286-0.858,0.286c-0.217,0-0.485-0.078-0.806-0.233c-0.434-0.2-0.685-0.547-0.754-1.041
			c-0.095-0.719-0.238-1.56-0.429-2.521c-0.121-0.607-0.295-1.441-0.52-2.502c-0.226-1.062-0.524-1.983-0.897-2.764
			c-0.121,0.434-0.126,1.387-0.013,2.86c0.104,1.63,0.182,2.891,0.234,3.783c0.061,1.005,0.083,1.565,0.065,1.677
			c-0.086,0.615-0.442,1.001-1.066,1.157c-0.104,0.026-0.19,0.039-0.26,0.039c-0.321,0-0.633-0.169-0.936-0.507
			c-0.399-0.434-0.568-1.564-0.507-3.393c0.052-1.769,0.052-2.904,0-3.406c-0.052-0.459-0.096-1.191-0.13-2.197
			c-0.035-0.892,0.091-1.655,0.377-2.288c0.364-0.806,0.958-1.209,1.781-1.209c0.156,0,0.338,0.017,0.546,0.052
			c1.005,0.165,1.69,0.802,2.054,1.911c0.477,1.465,0.78,3.362,0.91,5.694C40.348,15.778,40.617,14.447,40.808,13.71z"/>
		<path fill="#FFFFFF" d="M52.703,11.513c0.312-0.147,0.602-0.221,0.871-0.221c0.13,0,0.255,0.017,0.377,0.052
			c0.347,0.104,0.589,0.203,0.728,0.299c0.13,0.131,0.208,0.325,0.234,0.586c0.069,0.736,0.121,1.291,0.156,1.664
			c0.034,0.562-0.07,1.798-0.312,3.704c-0.061,0.442-0.104,0.798-0.13,1.066c-0.104,0.909-0.195,1.552-0.273,1.924
			c-0.173,0.798-0.429,1.378-0.767,1.741c-0.425,0.46-1.097,0.698-2.015,0.716c-0.416,0.009-0.862-0.026-1.339-0.104
			c-1.196-0.217-1.933-0.706-2.21-1.469c-0.104-0.285-0.135-0.59-0.091-0.91c0.069-0.555,0.377-0.832,0.923-0.832
			c0.165,0,0.304,0.035,0.416,0.104c0.243,0.148,0.403,0.251,0.481,0.312c0.459,0.252,0.741,0.373,0.845,0.364
			c0.199-0.009,0.472-0.013,0.819-0.013c0.399-0.061,0.683-0.154,0.852-0.279c0.169-0.126,0.297-0.362,0.384-0.709
			c0.121-0.494,0.19-0.928,0.208-1.3c0.026-0.13,0.039-0.226,0.039-0.286c-0.026,0.035-0.174,0.16-0.442,0.377
			c-0.364,0.295-1.031,0.425-2.002,0.391c-0.208-0.01-0.524-0.063-0.949-0.163c-0.425-0.1-0.72-0.192-0.884-0.279
			c-0.104-0.052-0.195-0.108-0.273-0.169c-0.139-0.078-0.282-0.247-0.429-0.508c-0.191-0.32-0.317-0.736-0.377-1.248
			c-0.035-0.103-0.065-0.42-0.091-0.948c-0.035-0.65-0.061-1.101-0.078-1.352c-0.035-0.589-0.06-0.996-0.078-1.222
			c-0.018-0.364,0.112-0.715,0.39-1.053c0.173-0.217,0.399-0.325,0.676-0.325c0.104,0,0.242,0.025,0.416,0.078
			c0.477,0.148,0.719,0.402,0.728,0.768c0.008,0.328,0.013,0.516,0.013,0.559c0.018,0.363,0.026,0.559,0.026,0.584
			c0,0.443-0.013,0.859-0.039,1.248c-0.052,0.799,0.112,1.27,0.494,1.418c0.165,0.061,0.381,0.107,0.65,0.143
			c0.069,0.009,0.26,0.014,0.572,0.014c0.269-0.06,0.468-0.17,0.598-0.326c0.104-0.121,0.208-0.338,0.312-0.649
			c0.069-0.277,0.1-0.767,0.091-1.469c0-0.624,0.026-1.036,0.078-1.235C52.421,12.059,52.555,11.713,52.703,11.513z"/>
		<path fill="#FFFFFF" d="M69.459,21.458c-0.26,0.216-0.459,0.372-0.598,0.468c-0.243,0.164-0.468,0.286-0.676,0.364
			c-0.589,0.226-1.517,0.42-2.782,0.585c-0.572,0.078-0.997,0.1-1.274,0.065c-0.598-0.061-1.049-0.107-1.352-0.143
			c-0.442-0.069-0.854-0.269-1.235-0.598c-0.304-0.26-0.455-0.607-0.455-1.041c0-0.173,0.026-0.363,0.078-0.571
			c0.156-0.606,0.589-0.91,1.3-0.91c0.13,0,0.264,0.009,0.403,0.026c0.771,0.096,1.352,0.182,1.742,0.26
			c0.225-0.018,0.433-0.025,0.624-0.025c0.641,0.008,1.135-0.039,1.482-0.143c0.598-0.173,0.876-0.516,0.832-1.026
			c-0.052-0.555-0.529-0.928-1.43-1.119c-0.355-0.078-1.027-0.134-2.015-0.168c-1.101-0.044-1.933-0.252-2.496-0.625
			c-0.685-0.45-1.083-1.188-1.196-2.209c-0.018-0.165-0.026-0.343-0.026-0.533c0-0.668,0.152-1.294,0.455-1.879
			s0.659-1.016,1.066-1.293c0.373-0.261,0.906-0.455,1.599-0.586c1.005-0.182,1.837-0.273,2.496-0.273
			c0.165,0,0.316,0.005,0.455,0.013l1.326,0.131c0.746,0.077,1.118,0.45,1.118,1.117c0,0.208-0.039,0.416-0.117,0.624
			c-0.13,0.347-0.559,0.521-1.287,0.521c-0.174,0-0.39-0.014-0.65-0.039c-0.424-0.043-0.837-0.065-1.235-0.065
			c-0.598,0-1.118,0.052-1.56,0.156c-0.728,0.173-1.122,0.594-1.183,1.261c-0.052,0.598,0.104,1.031,0.468,1.301
			c0.269,0.207,0.728,0.346,1.378,0.416c0.563,0.025,1.066,0.047,1.508,0.064c1.239,0.043,2.158,0.291,2.756,0.74
			c0.303,0.234,0.576,0.659,0.819,1.274c0.217,0.546,0.342,1.049,0.377,1.509c0.026,0.433-0.05,0.902-0.228,1.41
			C69.769,21.023,69.606,21.336,69.459,21.458z"/>
		<path fill="#FFFFFF" d="M79.443,18.143c0.294,0.746,0.481,1.491,0.559,2.236c0.035,0.32,0.052,0.602,0.052,0.845
			c0,1.101-0.451,1.651-1.352,1.651c-0.46,0-0.771-0.234-0.936-0.702c-0.355-1.517-0.568-2.384-0.637-2.601
			c-0.243-0.788-0.533-1.16-0.871-1.117c-0.364,0.043-0.637,0.135-0.819,0.273c-0.286,0.207-0.542,0.654-0.767,1.338
			c-0.113,0.348-0.243,0.854-0.39,1.521c-0.208,0.936-0.68,1.404-1.417,1.404c-0.416,0-0.767-0.078-1.053-0.234
			c-0.355-0.199-0.524-0.49-0.507-0.871c0.035-0.624,0.035-1.131,0-1.521c-0.026-0.328-0.039-0.593-0.039-0.793
			c-0.018-0.146-0.061-0.623-0.13-1.43l-0.208-2.587c-0.086-1.058-0.134-1.924-0.143-2.6c-0.009-0.884,0.212-1.482,0.663-1.794
			c0.277-0.191,0.563-0.286,0.858-0.286c0.164,0,0.346,0.039,0.546,0.116c0.494,0.2,0.741,0.517,0.741,0.949l0.013,0.793
			c0.008,0.321,0.008,0.664,0,1.027c-0.018,0.807-0.065,2.176-0.143,4.108c1.014-1.256,2.046-1.885,3.094-1.885
			c0.156,0,0.316,0.014,0.481,0.039c0.511,0.078,0.866,0.178,1.066,0.299C78.616,16.566,79.062,17.172,79.443,18.143z"/>
		<path fill="#FFFFFF" d="M87.191,12.072c1.075,0.356,1.781,1.451,2.119,3.289c0.061,0.329,0.16,1.17,0.299,2.522
			c0.018,0.174,0.026,0.369,0.026,0.585c0,0.806-0.176,1.571-0.527,2.294c-0.351,0.725-0.895,1.272-1.631,1.645
			c-0.693,0.355-1.465,0.512-2.314,0.469c-0.919-0.053-1.638-0.234-2.158-0.547c-0.589-0.363-1.01-0.831-1.261-1.403
			c-0.191-0.434-0.36-1.14-0.507-2.119c-0.139-0.901-0.208-1.634-0.208-2.196c0-0.261,0.013-0.477,0.039-0.65
			c0.122-0.814,0.229-1.373,0.325-1.678c0.173-0.58,0.446-1.07,0.819-1.469c0.659-0.71,1.794-1.027,3.406-0.949
			C86.355,11.899,86.879,11.968,87.191,12.072z M86.918,16.699c-0.061-0.701-0.161-1.234-0.299-1.598
			c-0.243-0.607-0.633-0.915-1.17-0.924c-0.72-0.008-1.209,0.178-1.469,0.558c-0.217,0.321-0.321,0.858-0.312,1.612
			c0.017,0.972,0.047,1.786,0.091,2.444c0.061,0.945,0.373,1.525,0.936,1.742c0.2,0.078,0.403,0.117,0.611,0.117
			c0.364,0,0.724-0.117,1.079-0.352c0.45-0.295,0.676-0.797,0.676-1.508c0-0.096-0.009-0.26-0.026-0.494L86.918,16.699z"/>
		<path fill="#FFFFFF" d="M98.852,14.49c0,0.892-0.173,1.551-0.52,1.976c-0.364,0.45-0.793,0.793-1.287,1.026
			c-0.381,0.183-0.715,0.3-1.001,0.352c-0.225,0.035-0.576,0.053-1.053,0.053c-0.72,0-1.478-0.088-2.275-0.261
			c0.329,1.698,0.502,2.903,0.52,3.614c0.017,0.729-0.078,1.191-0.286,1.391c-0.13,0.131-0.226,0.226-0.286,0.286
			c-0.018,0.018-0.134,0.052-0.351,0.104c-0.069,0.017-0.139,0.025-0.208,0.025c-0.295,0-0.559-0.108-0.793-0.324
			c-0.173-0.166-0.273-0.33-0.299-0.494c-0.078-0.494-0.139-0.941-0.182-1.34c-0.104-0.971-0.156-1.75-0.156-2.34v-1.65
			c0-0.521,0.03-1.113,0.091-1.781c0.061-0.642,0.208-1.252,0.442-1.833c0.294-0.702,0.663-1.188,1.105-1.456
			c1.066-0.633,2.089-0.957,3.068-0.975c0.685-0.009,1.326,0.139,1.924,0.441c0.225,0.113,0.394,0.226,0.507,0.338
			C98.505,12.318,98.852,13.268,98.852,14.49z M95.056,13.632c-0.321-0.009-0.603,0.083-0.845,0.272
			c-0.269,0.2-0.403,0.455-0.403,0.768c0,0.269,0.082,0.512,0.247,0.729c0.173,0.242,0.39,0.363,0.65,0.363
			c0.329,0,0.633-0.1,0.91-0.299c0.312-0.217,0.468-0.481,0.468-0.793C96.083,14.004,95.741,13.658,95.056,13.632z"/>
		<path fill="#FFFFFF" d="M107.809,14.49c0,0.892-0.173,1.551-0.52,1.976c-0.364,0.45-0.793,0.793-1.287,1.026
			c-0.381,0.183-0.715,0.3-1.001,0.352c-0.225,0.035-0.576,0.053-1.053,0.053c-0.72,0-1.478-0.088-2.275-0.261
			c0.329,1.698,0.503,2.903,0.52,3.614c0.017,0.729-0.078,1.191-0.286,1.391c-0.13,0.131-0.226,0.226-0.286,0.286
			c-0.018,0.018-0.134,0.052-0.351,0.104c-0.069,0.017-0.139,0.025-0.208,0.025c-0.295,0-0.559-0.108-0.793-0.324
			c-0.173-0.166-0.273-0.33-0.299-0.494c-0.078-0.494-0.139-0.941-0.182-1.34c-0.104-0.971-0.156-1.75-0.156-2.34v-1.65
			c0-0.521,0.03-1.113,0.091-1.781c0.061-0.642,0.208-1.252,0.442-1.833c0.294-0.702,0.663-1.188,1.105-1.456
			c1.066-0.633,2.089-0.957,3.068-0.975c0.685-0.009,1.326,0.139,1.924,0.441c0.225,0.113,0.394,0.226,0.507,0.338
			C107.462,12.318,107.809,13.268,107.809,14.49z M104.013,13.632c-0.321-0.009-0.603,0.083-0.845,0.272
			c-0.268,0.2-0.403,0.455-0.403,0.768c0,0.269,0.082,0.512,0.247,0.729c0.173,0.242,0.39,0.363,0.65,0.363
			c0.329,0,0.633-0.1,0.91-0.299c0.312-0.217,0.468-0.481,0.468-0.793C105.04,14.004,104.698,13.658,104.013,13.632z"/>
		<path fill="#FFFFFF" d="M109.603,14.203c-0.355-0.155-0.611-0.32-0.767-0.493c-0.182-0.208-0.273-0.489-0.273-0.845
			c0-0.139,0.017-0.312,0.052-0.521c0.086-0.537,0.258-0.936,0.514-1.196c0.255-0.26,0.647-0.39,1.176-0.39
			c0.208,0,0.395,0.013,0.559,0.039c0.624,0.096,1.005,0.503,1.144,1.222c0.052,0.269,0.078,0.512,0.078,0.729
			c0,0.329-0.07,0.594-0.208,0.793c-0.39,0.555-0.858,0.823-1.404,0.806C110.084,14.338,109.794,14.291,109.603,14.203z
			 M110.604,16.089c0.113,0,0.277,0.018,0.494,0.052c0.373,0.078,0.624,0.533,0.754,1.365c0.078,0.485,0.1,1.066,0.065,1.742
			c-0.008,0.277,0.022,0.691,0.091,1.241c0.069,0.55,0.1,0.964,0.091,1.241c-0.018,0.459-0.204,0.768-0.559,0.924
			c-0.19,0.086-0.395,0.129-0.611,0.129c-0.208,0-0.42-0.034-0.637-0.104c-0.494-0.156-0.789-0.541-0.884-1.156
			c-0.044-0.234-0.044-0.764,0-1.586c0.061-1.258,0.104-1.976,0.13-2.158c0.139-1.006,0.446-1.56,0.923-1.664
			C110.478,16.098,110.526,16.089,110.604,16.089z"/>
		<path fill="#FFFFFF" d="M117.897,15.361c-0.771,0-1.304,0.381-1.599,1.144c-0.217,0.571-0.304,1.374-0.26,2.405
			c0.035,0.633,0.065,1.104,0.091,1.416c0.069,1.457-0.325,2.202-1.183,2.236c-0.971,0.035-1.456-0.48-1.456-1.547
			c0-0.381,0.013-0.801,0.039-1.261l0.104-1.847c0.017-0.372-0.043-1.338-0.182-2.898c-0.121-1.326-0.134-2.166-0.039-2.521
			c0.199-0.764,0.745-1.097,1.638-1.002c0.459,0.053,0.736,0.282,0.832,0.69c0.043,0.242,0.065,0.477,0.065,0.702
			c0,0.165-0.013,0.329-0.039,0.494c0.355-0.329,1.105-0.602,2.249-0.819c0.364-0.069,0.671-0.104,0.923-0.104
			c0.737,0,1.382,0.195,1.937,0.584c0.771,0.538,1.209,1.621,1.313,3.25c0.095,1.439,0.134,2.57,0.117,3.394
			c-0.018,0.823-0.031,1.296-0.039,1.417c-0.113,1.144-0.577,1.673-1.391,1.586c-0.65-0.069-1.062-0.468-1.235-1.195
			c-0.096-0.416-0.122-1.054-0.078-1.912c0.061-1.092,0.083-1.906,0.065-2.443c-0.017-0.633-0.132-1.068-0.344-1.307
			c-0.212-0.238-0.63-0.388-1.254-0.448C118.075,15.365,117.984,15.361,117.897,15.361z"/>
		<path fill="#FFFFFF" d="M127.79,11.344c0.91,0,1.672,0.273,2.288,0.819c0.797,0.702,1.174,1.673,1.131,2.911
			c-0.035,1.102-0.061,1.82-0.078,2.158l-0.013,1.742c-0.009,1.145-0.342,2.098-1.001,2.86c-0.693,0.806-1.604,1.209-2.73,1.209
			c-0.217,0-0.42-0.013-0.611-0.039c-0.806-0.104-1.397-0.364-1.774-0.78c-0.377-0.416-0.592-1.027-0.643-1.832
			c-0.044-0.764,0.32-1.21,1.092-1.34c0.156-0.025,0.299-0.039,0.429-0.039c0.52,0,0.814,0.217,0.884,0.65
			c0.086,0.563,0.325,0.975,0.715,1.234c0.182,0.121,0.364,0.183,0.546,0.183c0.208,0,0.429-0.083,0.663-0.247
			c0.398-0.277,0.628-0.758,0.689-1.443c0.069-0.701,0.047-1.387-0.065-2.054c-0.702,0.494-1.435,0.741-2.197,0.741
			c-0.364,0-0.715-0.048-1.053-0.142c-0.893-0.252-1.521-0.672-1.885-1.262c-0.338-0.563-0.459-1.313-0.364-2.249
			c0.173-1.725,1.261-2.734,3.263-3.028C127.309,11.361,127.547,11.344,127.79,11.344z M126.022,14.841
			c-0.026,0.72,0.221,1.101,0.741,1.144c0.511,0.035,0.923-0.121,1.235-0.467c0.156-0.174,0.234-0.369,0.234-0.586
			c0-0.199-0.065-0.402-0.195-0.611c-0.277-0.45-0.676-0.649-1.196-0.598C126.312,13.776,126.039,14.148,126.022,14.841z"/>
		<path fill="#FFFFFF" d="M142.623,12.93c-1.586,0-2.648,0.741-3.185,2.223c-0.13,0.355-0.195,0.764-0.195,1.223
			c0,0.58,0.117,1.239,0.351,1.977c0.355,1.109,1.157,1.663,2.405,1.663c0.165,0,0.409-0.015,0.734-0.046
			c0.325-0.029,0.57-0.045,0.734-0.045c1.075,0,1.755,0.295,2.041,0.884c0.078,0.156,0.117,0.325,0.117,0.507
			c0,0.512-0.438,0.963-1.313,1.353c-0.945,0.242-1.617,0.368-2.015,0.377c-0.936,0.026-1.924-0.178-2.964-0.611
			c-1.421-0.589-2.267-2.132-2.535-4.628c-0.052-0.502-0.078-1.001-0.078-1.494c0-0.643,0.043-1.287,0.13-1.937
			c0.156-1.135,0.455-1.963,0.897-2.483c0.537-0.624,1.105-1.069,1.703-1.339c0.494-0.217,1.209-0.385,2.145-0.507
			c0.459-0.061,0.871-0.091,1.235-0.091c0.537,0,0.988,0.061,1.352,0.182c0.979,0.208,1.512,0.824,1.599,1.846
			c0.069,0.798-0.29,1.196-1.079,1.196c-0.199,0-0.42-0.026-0.663-0.078C143.512,12.986,143.039,12.93,142.623,12.93z"/>
		<path fill="#FFFFFF" d="M151.138,11.486h0.884c0.355,0,0.778,0.129,1.268,0.384c0.489,0.256,0.825,0.536,1.007,0.839
			c0.26,0.416,0.42,0.814,0.481,1.195c0.069,0.434,0.021,1.5-0.143,3.199c-0.052,0.527-0.078,1.005-0.078,1.43
			c0,0.884,0.108,1.499,0.325,1.846c0.251,0.399,0.377,0.74,0.377,1.027c0,0.129-0.021,0.228-0.065,0.299
			c-0.208,0.338-0.511,0.507-0.91,0.507c-0.095,0-0.195-0.009-0.299-0.026c-0.364-0.061-0.681-0.402-0.949-1.027l-0.13,0.261
			c-0.303,0.425-0.797,0.754-1.482,0.987c-0.598,0.209-1.196,0.295-1.794,0.261c-0.546-0.026-0.993-0.161-1.339-0.403
			c-1.014-0.701-1.521-1.655-1.521-2.859c0-0.807,0.281-1.482,0.845-2.028c0.564-0.546,1.252-0.85,2.067-0.91
			c0.121-0.009,0.277-0.013,0.468-0.013c0.806,0,1.478,0.16,2.015,0.481c0.147,0.113,0.269,0.204,0.364,0.273
			c0.026-0.174,0.039-0.269,0.039-0.286c0.052-0.311,0.078-0.585,0.078-0.819c0-0.372-0.065-0.68-0.195-0.923
			c-0.216-0.407-0.477-0.642-0.78-0.702c-0.295-0.061-0.685-0.039-1.17,0.065c-0.078,0.017-0.173,0.026-0.286,0.026
			c-0.356,0-0.689-0.135-1.001-0.403c-0.312-0.269-0.468-0.581-0.468-0.937c0-0.103,0.021-0.228,0.065-0.377
			c0.156-0.502,0.385-0.814,0.689-0.936c0.078-0.026,0.138-0.053,0.182-0.078c0.207-0.096,0.359-0.16,0.455-0.195
			C150.389,11.53,150.722,11.479,151.138,11.486z M150.566,20.404c0.277-0.173,0.416-0.398,0.416-0.676
			c0-0.104-0.026-0.229-0.078-0.377c-0.156-0.441-0.442-0.662-0.858-0.662c-0.711,0-1.092,0.277-1.144,0.832
			c-0.052,0.484,0.074,0.814,0.377,0.987c0.147,0.087,0.308,0.13,0.481,0.13C150.055,20.639,150.324,20.561,150.566,20.404z"/>
		<path fill="#FFFFFF" d="M162.526,13.333c0.919,0.069,1.404,0.472,1.456,1.209c0.061,0.745-0.212,1.14-0.819,1.183
			c-1.352,0.113-2.309,0.52-2.873,1.223c-0.217,0.269-0.325,0.823-0.325,1.664c0,0.233,0.015,0.582,0.046,1.046
			c0.03,0.464,0.045,0.812,0.045,1.046c0,0.928-0.165,1.504-0.494,1.729c-0.269,0.183-0.511,0.274-0.728,0.274
			c-0.122,0-0.225-0.022-0.312-0.066c-0.459-0.225-0.771-0.516-0.936-0.871c-0.095-0.217-0.187-0.66-0.273-1.332
			c-0.087-0.672-0.182-1.705-0.286-3.101s-0.204-2.444-0.299-3.146c-0.052-0.391-0.078-0.725-0.078-1.002
			c0-0.589,0.104-0.996,0.312-1.222c0.312-0.338,0.589-0.498,0.832-0.482c0.182-0.025,0.347-0.039,0.494-0.039
			c0.736,0,1.17,0.305,1.3,0.91c0.156,0.754,0.187,1.5,0.091,2.236C160.659,13.684,161.608,13.264,162.526,13.333z"/>
		<path fill="#FFFFFF" d="M173.68,16.194c0.182,0.129,0.269,0.372,0.26,0.727c-0.009,0.295-0.083,0.524-0.221,0.689
			c-0.095,0.113-0.29,0.252-0.585,0.416c-0.13,0.078-0.499,0.117-1.105,0.117c-0.39,0-0.876-0.018-1.456-0.052
			c0,0.494-0.013,1.109-0.039,1.847c-0.035,0.865-0.052,1.477-0.052,1.832c0,0.355-0.096,0.654-0.286,0.897
			c-0.208,0.269-0.485,0.403-0.832,0.403c-0.139,0-0.256-0.014-0.351-0.039c-0.33-0.087-0.546-0.265-0.65-0.533
			c-0.044-0.121-0.078-0.416-0.104-0.885c-0.026-0.519-0.048-1.607-0.065-3.262c-0.642,0.155-1.192,0.233-1.651,0.233
			c-0.928,0-1.517-0.382-1.768-1.144c-0.061-0.191-0.091-0.377-0.091-0.559c0-0.338,0.139-0.607,0.416-0.806
			c0.425-0.304,0.871-0.434,1.339-0.391c0.398,0.035,0.936,0.021,1.612-0.039c-0.018-1.525-0.03-2.564-0.039-3.119
			c-0.009-0.729,0.052-1.235,0.182-1.522c0.208-0.459,0.628-0.658,1.261-0.598c0.884,0.086,1.287,0.745,1.209,1.976
			c-0.035,0.572-0.061,1.023-0.078,1.352l-0.091,1.871c0.208,0.035,0.377,0.053,0.507,0.053c0.069,0,0.13-0.004,0.182-0.014
			c0.208-0.025,0.438-0.025,0.689,0c0.338,0.035,0.572,0.061,0.702,0.078C172.852,15.725,173.221,15.881,173.68,16.194z"/>
	</g>
</g>
</svg>
