<?xml version="1.0" encoding="utf-8"?>
<!-- Generator: Adobe Illustrator 18.0.0, SVG Export Plug-In . SVG Version: 6.00 Build 0)  -->
<!DOCTYPE svg PUBLIC "-//W3C//DTD SVG 1.1//EN" "http://www.w3.org/Graphics/SVG/1.1/DTD/svg11.dtd">
<svg version="1.1" id="Layer_1" xmlns="http://www.w3.org/2000/svg" xmlns:xlink="http://www.w3.org/1999/xlink" x="0px" y="0px"
	 viewBox="0 0 123.601 119.698" enable-background="new 0 0 123.601 119.698" xml:space="preserve">
<g id="XMLID_2643_">
	<path id="XMLID_2637_" fill="#3FB3C5" d="M115.96,59.849c0,29.912-24.249,54.162-54.163,54.162
		c-29.908,0-54.157-24.25-54.157-54.162c0-29.912,24.249-54.161,54.157-54.161C91.712,5.688,115.96,29.936,115.96,59.849z"/>
	<path id="XMLID_2636_" fill="#3FB3C5" d="M98.483,59.849c0,20.26-16.423,36.683-36.685,36.683
		c-20.258,0-36.681-16.423-36.681-36.683c0-20.259,16.423-36.683,36.681-36.683C82.06,23.165,98.483,39.59,98.483,59.849z"/>
	<polygon id="XMLID_2625_" fill="#FFFFFF" points="55.327,45.203 80.069,59.609 55.327,74.018 	"/>
</g>
</svg>
