<?xml version="1.0" encoding="utf-8"?>
<!-- Generator: Adobe Illustrator 18.0.0, SVG Export Plug-In . SVG Version: 6.00 Build 0)  -->
<!DOCTYPE svg PUBLIC "-//W3C//DTD SVG 1.1//EN" "http://www.w3.org/Graphics/SVG/1.1/DTD/svg11.dtd">
<svg version="1.1" id="Layer_1" xmlns="http://www.w3.org/2000/svg" xmlns:xlink="http://www.w3.org/1999/xlink" x="0px" y="0px"
	 viewBox="0 0 129.874 45.274" enable-background="new 0 0 129.874 45.274" xml:space="preserve">
<g id="XMLID_147_">
	<path id="XMLID_145_" fill="#3FB3C5" stroke="#3FB3C5" stroke-miterlimit="10" d="M106.879,3.671v-0.03l-42.03,0.245L22.819,3.641
		v0.03C11.366,4.083,2.253,12.509,2.34,22.789C2.425,33.068,11.68,41.34,23.137,41.56v0.03l20.875,0.014v0.029l20.837-0.014
		l20.837,0.014v-0.029l20.875-0.014l0.001-0.03c11.458-0.22,20.71-8.492,20.798-18.771C127.445,12.509,118.332,4.083,106.879,3.671z
		"/>
	<g>
		<path fill="#FFFFFF" d="M51.335,20.069c-0.229,0.857-0.5,1.705-0.814,2.543l-0.972,2.614c-0.543,1.448-1.205,2.738-1.985,3.871
			c-0.334,0.333-0.553,0.533-0.657,0.6c-0.229,0.143-0.515,0.195-0.857,0.157c-0.571-0.067-1.043-0.262-1.414-0.586
			c-0.305-0.267-0.614-0.691-0.929-1.271c-0.391-0.762-0.676-1.333-0.856-1.714c-0.791-1.543-1.567-3.5-2.329-5.871
			c-0.324-1.009-0.472-1.843-0.442-2.5c0.019-0.495,0.047-0.819,0.085-0.971c0.182-0.8,0.644-1.248,1.386-1.343
			c0.419-0.047,0.805,0.024,1.157,0.214c0.686,0.371,1.114,1.638,1.286,3.8c0.076,0.886,0.262,1.876,0.557,2.971
			c0.134,0.486,0.434,1.448,0.9,2.886c0.133,0.409,0.224,0.614,0.271,0.614c0.019,0,0.028-0.043,0.028-0.129
			c0.477,0.162,1.038-1.162,1.686-3.971c0.058-0.229,0.21-1.086,0.457-2.572c0.181-1.104,0.376-1.928,0.586-2.471
			c0.267-0.705,0.662-1.152,1.186-1.343c0.238-0.086,0.467-0.128,0.686-0.128c0.2,0,0.367,0.038,0.5,0.114
			c0.581,0.314,0.881,0.933,0.9,1.857C51.768,18.079,51.63,18.955,51.335,20.069z"/>
		<path fill="#FFFFFF" d="M53.864,20.155c-0.391-0.171-0.672-0.352-0.843-0.543c-0.2-0.229-0.3-0.538-0.3-0.928
			c0-0.152,0.019-0.343,0.057-0.571c0.095-0.591,0.283-1.029,0.564-1.314c0.28-0.286,0.712-0.428,1.293-0.428
			c0.229,0,0.433,0.014,0.614,0.043c0.686,0.105,1.104,0.552,1.257,1.343c0.058,0.295,0.086,0.562,0.086,0.8
			c0,0.362-0.076,0.653-0.229,0.872c-0.429,0.61-0.943,0.905-1.543,0.886C54.392,20.303,54.073,20.25,53.864,20.155z M54.963,22.226
			c0.124,0,0.305,0.019,0.543,0.057c0.409,0.086,0.686,0.586,0.829,1.5c0.085,0.533,0.109,1.171,0.071,1.914
			c-0.01,0.305,0.023,0.76,0.1,1.364s0.109,1.059,0.1,1.364c-0.019,0.505-0.224,0.843-0.614,1.014
			c-0.209,0.095-0.433,0.143-0.671,0.143c-0.229,0-0.462-0.038-0.7-0.114c-0.543-0.171-0.866-0.595-0.972-1.271
			c-0.047-0.257-0.047-0.838,0-1.743c0.067-1.381,0.114-2.171,0.144-2.371c0.152-1.105,0.49-1.714,1.014-1.829
			C54.826,22.236,54.877,22.226,54.963,22.226z"/>
		<path fill="#FFFFFF" d="M67.535,18.869c0,0.419-0.043,0.895-0.129,1.428l-0.3,4.186c-0.124,1.705-0.448,2.933-0.972,3.686
			c-0.714,1.038-1.924,1.519-3.629,1.443c-2.733-0.114-4.233-1.205-4.499-3.271c-0.048-0.362-0.072-0.676-0.072-0.943
			c0-1.505,0.581-2.49,1.743-2.957c0.429-0.171,0.862-0.257,1.3-0.257c1.038,0,2.152,0.457,3.343,1.371
			c-0.133-2.133-0.2-3.714-0.2-4.743c0-0.752,0.038-1.238,0.114-1.457c0.172-0.486,0.572-0.79,1.2-0.914
			c0.104-0.019,0.215-0.029,0.329-0.029c0.476,0,0.914,0.233,1.313,0.7C67.381,17.474,67.535,18.06,67.535,18.869z M62.119,27.026
			c0.314,0,0.639-0.157,0.972-0.471c0.267-0.257,0.4-0.5,0.4-0.729c0-0.295-0.21-0.576-0.629-0.843
			c-0.333-0.209-0.647-0.314-0.942-0.314c-0.334,0-0.619,0.152-0.857,0.457c-0.181,0.229-0.271,0.457-0.271,0.686
			c0,0.305,0.176,0.6,0.528,0.886C61.586,26.917,61.853,27.026,62.119,27.026z"/>
		<path fill="#FFFFFF" d="M75.662,23.741c-0.562,0.4-1.209,0.6-1.942,0.6c-0.762,0-1.609-0.205-2.543-0.614
			c-0.028,0.153-0.043,0.31-0.043,0.471c0,0.428,0.104,0.905,0.314,1.428c0.333,0.829,0.795,1.271,1.386,1.329
			c0.705,0.076,1.409,0.005,2.114-0.214c0.124-0.038,0.257-0.057,0.4-0.057c0.476,0,0.737,0.338,0.785,1.014
			c0.066,0.838-0.505,1.452-1.714,1.843c-0.467,0.152-0.929,0.229-1.386,0.229c-0.705,0-1.405-0.191-2.101-0.572
			c-1.143-0.628-1.881-2.433-2.214-5.414c-0.057-0.505-0.086-1.019-0.086-1.543c0-2.152,0.624-3.662,1.872-4.529
			c0.628-0.533,1.442-0.8,2.442-0.8c0.523,0,1.086,0.067,1.686,0.2c1.771,0.4,2.667,1.409,2.686,3.028
			C77.339,21.741,76.786,22.941,75.662,23.741z M71.963,20.841c0.009,0.314,0.131,0.578,0.364,0.793s0.507,0.331,0.821,0.35
			c0.476,0.029,0.857-0.086,1.143-0.343c0.152-0.133,0.229-0.319,0.229-0.557c0-0.229-0.066-0.505-0.2-0.829
			c-0.199-0.495-0.495-0.743-0.886-0.743c-0.143,0-0.313,0.043-0.514,0.128C72.263,19.917,71.944,20.317,71.963,20.841z"/>
		<path fill="#FFFFFF" d="M85.176,17.812c1.182,0.391,1.957,1.595,2.329,3.614c0.066,0.362,0.176,1.286,0.328,2.771
			c0.02,0.191,0.028,0.405,0.028,0.643c0,0.886-0.192,1.726-0.578,2.521c-0.386,0.795-0.983,1.397-1.793,1.807
			c-0.762,0.39-1.609,0.562-2.543,0.514c-1.009-0.057-1.8-0.257-2.371-0.6c-0.647-0.4-1.109-0.914-1.386-1.543
			c-0.209-0.476-0.396-1.252-0.557-2.329c-0.152-0.99-0.229-1.795-0.229-2.414c0-0.286,0.014-0.524,0.043-0.714
			c0.133-0.895,0.252-1.509,0.356-1.843c0.19-0.638,0.49-1.176,0.9-1.614c0.724-0.781,1.971-1.128,3.742-1.043
			C84.257,17.622,84.833,17.698,85.176,17.812z M84.876,22.898c-0.066-0.771-0.176-1.357-0.328-1.757
			c-0.267-0.667-0.695-1.005-1.286-1.014c-0.79-0.01-1.328,0.195-1.614,0.614c-0.238,0.353-0.353,0.943-0.343,1.771
			c0.02,1.067,0.053,1.962,0.101,2.686c0.066,1.038,0.409,1.676,1.028,1.914c0.219,0.086,0.442,0.128,0.671,0.128
			c0.4,0,0.795-0.128,1.186-0.386c0.495-0.323,0.743-0.876,0.743-1.657c0-0.105-0.01-0.286-0.028-0.543L84.876,22.898z"/>
	</g>
</g>
</svg>
