<?xml version="1.0" encoding="utf-8"?>
<!-- Generator: Adobe Illustrator 18.0.0, SVG Export Plug-In . SVG Version: 6.00 Build 0)  -->
<!DOCTYPE svg PUBLIC "-//W3C//DTD SVG 1.1//EN" "http://www.w3.org/Graphics/SVG/1.1/DTD/svg11.dtd" [
	<!ENTITY ns_flows "http://ns.adobe.com/Flows/1.0/">
	<!ENTITY ns_extend "http://ns.adobe.com/Extensibility/1.0/">
	<!ENTITY ns_ai "http://ns.adobe.com/AdobeIllustrator/10.0/">
	<!ENTITY ns_graphs "http://ns.adobe.com/Graphs/1.0/">
]>
<svg version="1.1" id="Layer_1" xmlns:x="&ns_extend;" xmlns:i="&ns_ai;" xmlns:graph="&ns_graphs;"
	 xmlns="http://www.w3.org/2000/svg" xmlns:xlink="http://www.w3.org/1999/xlink" xmlns:a="http://ns.adobe.com/AdobeSVGViewerExtensions/3.0/"
	 x="0px" y="0px" width="88.679px" height="33.962px" viewBox="0 0 88.679 33.962" enable-background="new 0 0 88.679 33.962"
	 xml:space="preserve">
<g id="XMLID_1493_">
	<path id="XMLID_1515_" fill="#3FB3C5" stroke="#3FB3C5" stroke-miterlimit="10" d="M71.27,5.121V5.102L45.172,5.254L19.075,5.102
		v0.019c-7.112,0.256-12.77,5.488-12.716,11.87c0.053,6.382,5.799,11.519,12.913,11.655v0.019l12.962,0.009v0.018l12.938-0.009
		l12.938,0.009v-0.018l12.962-0.009l0.001-0.019c7.114-0.136,12.86-5.273,12.914-11.655C84.039,10.609,78.381,5.377,71.27,5.121z"/>
	<g>
		<path fill="#FFFFFF" d="M36.781,15.307c-0.142,0.532-0.31,1.058-0.506,1.578l-0.603,1.624c-0.337,0.899-0.748,1.7-1.233,2.403
			c-0.207,0.207-0.343,0.331-0.408,0.373c-0.142,0.089-0.32,0.121-0.532,0.097c-0.355-0.042-0.647-0.163-0.878-0.364
			c-0.189-0.166-0.382-0.429-0.576-0.789c-0.243-0.473-0.42-0.828-0.532-1.065c-0.491-0.958-0.973-2.173-1.446-3.646
			c-0.201-0.627-0.293-1.145-0.275-1.552c0.012-0.308,0.03-0.509,0.053-0.603c0.112-0.497,0.399-0.775,0.861-0.834
			c0.26-0.03,0.499,0.014,0.718,0.133c0.426,0.231,0.692,1.017,0.798,2.359c0.048,0.55,0.163,1.165,0.346,1.845
			c0.083,0.302,0.269,0.899,0.559,1.792c0.083,0.254,0.139,0.382,0.168,0.382c0.012,0,0.018-0.027,0.018-0.08
			c0.296,0.101,0.645-0.722,1.047-2.466c0.035-0.141,0.13-0.674,0.284-1.596c0.112-0.686,0.233-1.197,0.364-1.534
			c0.166-0.438,0.411-0.716,0.736-0.834c0.148-0.053,0.29-0.08,0.426-0.08c0.124,0,0.228,0.024,0.31,0.071
			c0.36,0.195,0.547,0.58,0.559,1.153C37.051,14.072,36.965,14.615,36.781,15.307z"/>
		<path fill="#FFFFFF" d="M38.351,15.36c-0.242-0.106-0.416-0.218-0.523-0.337c-0.124-0.142-0.186-0.334-0.186-0.576
			c0-0.095,0.012-0.213,0.035-0.355c0.059-0.367,0.176-0.639,0.351-0.816c0.174-0.177,0.442-0.266,0.803-0.266
			c0.141,0,0.269,0.009,0.381,0.027c0.426,0.065,0.686,0.342,0.78,0.833c0.036,0.184,0.053,0.349,0.053,0.497
			c0,0.225-0.047,0.405-0.142,0.541c-0.266,0.378-0.585,0.562-0.958,0.55C38.679,15.452,38.481,15.42,38.351,15.36z M39.034,16.646
			c0.077,0,0.189,0.012,0.338,0.036c0.254,0.053,0.426,0.364,0.514,0.931c0.053,0.331,0.068,0.727,0.044,1.189
			c-0.006,0.189,0.015,0.472,0.062,0.847c0.048,0.375,0.068,0.658,0.063,0.847c-0.012,0.314-0.14,0.524-0.382,0.63
			c-0.13,0.059-0.269,0.088-0.417,0.088c-0.142,0-0.287-0.024-0.435-0.071c-0.337-0.106-0.538-0.37-0.603-0.789
			c-0.03-0.16-0.03-0.521,0-1.083c0.042-0.857,0.071-1.348,0.089-1.472c0.094-0.686,0.305-1.065,0.63-1.135
			C38.948,16.652,38.981,16.646,39.034,16.646z"/>
		<path fill="#FFFFFF" d="M46.84,14.562c0,0.26-0.027,0.556-0.08,0.887l-0.186,2.599c-0.077,1.059-0.278,1.822-0.604,2.289
			c-0.443,0.645-1.194,0.943-2.253,0.896c-1.697-0.071-2.629-0.748-2.794-2.031c-0.029-0.225-0.044-0.42-0.044-0.586
			c0-0.934,0.36-1.546,1.082-1.836c0.266-0.107,0.535-0.159,0.807-0.159c0.645,0,1.336,0.284,2.076,0.851
			c-0.083-1.325-0.124-2.306-0.124-2.945c0-0.467,0.024-0.769,0.071-0.905c0.106-0.302,0.355-0.491,0.745-0.568
			c0.065-0.012,0.133-0.017,0.204-0.017c0.295,0,0.568,0.145,0.816,0.434C46.745,13.696,46.84,14.06,46.84,14.562z M43.478,19.627
			c0.195,0,0.396-0.097,0.603-0.293c0.166-0.159,0.248-0.31,0.248-0.452c0-0.183-0.13-0.357-0.39-0.523
			c-0.207-0.13-0.402-0.195-0.585-0.195c-0.207,0-0.385,0.095-0.532,0.284c-0.112,0.142-0.169,0.284-0.169,0.426
			c0,0.189,0.11,0.373,0.328,0.55C43.147,19.559,43.312,19.627,43.478,19.627z"/>
		<path fill="#FFFFFF" d="M51.886,17.587c-0.349,0.248-0.751,0.372-1.206,0.372c-0.473,0-0.999-0.127-1.579-0.381
			c-0.018,0.094-0.027,0.192-0.027,0.292c0,0.266,0.065,0.562,0.195,0.887c0.207,0.514,0.493,0.79,0.86,0.825
			c0.438,0.047,0.875,0.003,1.313-0.133c0.077-0.024,0.16-0.035,0.249-0.035c0.295,0,0.458,0.21,0.488,0.63
			c0.042,0.521-0.313,0.902-1.065,1.145c-0.29,0.094-0.576,0.141-0.86,0.141c-0.438,0-0.872-0.118-1.304-0.355
			c-0.71-0.39-1.168-1.511-1.375-3.361c-0.035-0.313-0.053-0.633-0.053-0.958c0-1.336,0.387-2.274,1.162-2.812
			c0.39-0.331,0.896-0.497,1.517-0.497c0.325,0,0.674,0.042,1.047,0.124c1.1,0.248,1.656,0.875,1.668,1.88
			C52.927,16.345,52.584,17.09,51.886,17.587z M49.589,15.786c0.006,0.195,0.081,0.359,0.226,0.492
			c0.145,0.133,0.315,0.205,0.51,0.217c0.296,0.018,0.532-0.053,0.71-0.213c0.094-0.083,0.142-0.198,0.142-0.346
			c0-0.142-0.042-0.313-0.125-0.515c-0.124-0.307-0.307-0.461-0.55-0.461c-0.089,0-0.195,0.027-0.32,0.08
			C49.776,15.212,49.577,15.461,49.589,15.786z"/>
		<path fill="#FFFFFF" d="M57.794,13.906c0.733,0.243,1.215,0.99,1.446,2.244c0.042,0.225,0.11,0.798,0.204,1.72
			c0.012,0.118,0.018,0.252,0.018,0.4c0,0.55-0.12,1.072-0.359,1.565c-0.239,0.494-0.611,0.868-1.114,1.122
			c-0.473,0.243-0.999,0.349-1.578,0.32c-0.627-0.036-1.118-0.16-1.473-0.373c-0.402-0.248-0.689-0.568-0.861-0.958
			c-0.13-0.296-0.245-0.777-0.346-1.446c-0.095-0.615-0.142-1.115-0.142-1.5c0-0.177,0.009-0.325,0.027-0.444
			c0.083-0.555,0.156-0.937,0.221-1.144c0.118-0.396,0.305-0.73,0.559-1.002c0.449-0.485,1.224-0.701,2.324-0.648
			C57.223,13.787,57.581,13.835,57.794,13.906z M57.608,17.063c-0.042-0.479-0.11-0.843-0.204-1.091
			c-0.166-0.414-0.432-0.624-0.798-0.63c-0.491-0.006-0.825,0.121-1.002,0.382c-0.148,0.218-0.219,0.585-0.213,1.099
			c0.012,0.663,0.033,1.218,0.062,1.668c0.042,0.645,0.254,1.041,0.639,1.189c0.136,0.053,0.275,0.08,0.417,0.08
			c0.248,0,0.494-0.08,0.736-0.239c0.307-0.201,0.461-0.544,0.461-1.029c0-0.065-0.006-0.177-0.018-0.337L57.608,17.063z"/>
	</g>
</g>
<g id="XMLID_1458_">
	<defs>
		<rect id="XMLID_1459_" x="-503.782" y="-126.433" width="250.248" height="297.708"/>
	</defs>
	<clipPath id="XMLID_1444_">
		<use xlink:href="#XMLID_1459_"  overflow="visible"/>
	</clipPath>
	<g clip-path="url(#XMLID_1444_)">
		
			<image overflow="visible" width="2576" height="1940" id="XMLID_1460_" xlink:href="Ingenia/Clientes/2016/Kids World /CataÌlogo/Links/PAGINA2.jpg"  transform="matrix(0.2922 0 0 0.2922 -503.783 -126.4342)">
		</image>
	</g>
</g>
</svg>
