<?xml version="1.0" encoding="utf-8"?>
<!-- Generator: Adobe Illustrator 18.0.0, SVG Export Plug-In . SVG Version: 6.00 Build 0)  -->
<!DOCTYPE svg PUBLIC "-//W3C//DTD SVG 1.1//EN" "http://www.w3.org/Graphics/SVG/1.1/DTD/svg11.dtd" [
	<!ENTITY ns_flows "http://ns.adobe.com/Flows/1.0/">
	<!ENTITY ns_extend "http://ns.adobe.com/Extensibility/1.0/">
	<!ENTITY ns_ai "http://ns.adobe.com/AdobeIllustrator/10.0/">
	<!ENTITY ns_graphs "http://ns.adobe.com/Graphs/1.0/">
]>
<svg version="1.1" id="Layer_1" xmlns:x="&ns_extend;" xmlns:i="&ns_ai;" xmlns:graph="&ns_graphs;"
	 xmlns="http://www.w3.org/2000/svg" xmlns:xlink="http://www.w3.org/1999/xlink" xmlns:a="http://ns.adobe.com/AdobeSVGViewerExtensions/3.0/"
	 x="0px" y="0px" width="88.679px" height="33.962px" viewBox="0 0 88.679 33.962" enable-background="new 0 0 88.679 33.962"
	 xml:space="preserve">
<path id="XMLID_44_" fill="#8DC63F" d="M71.238,5.121V5.102L45.14,5.254L19.043,5.102v0.019c-7.112,0.256-12.77,5.488-12.716,11.87
	C6.38,23.374,12.126,28.51,19.24,28.647v0.019l12.962,0.009v0.018l12.938-0.009l12.938,0.009v-0.018l12.962-0.009l0.001-0.019
	c7.114-0.136,12.86-5.273,12.914-11.655C84.007,10.609,78.349,5.377,71.238,5.121z"/>
<g>
	<path fill="#FFFFFF" d="M26.096,12.529c0.988,0.16,1.549,0.695,1.685,1.606c0.018,0.119,0.027,0.219,0.027,0.301
		c0,0.433-0.136,0.855-0.408,1.269c-0.331,0.503-1.035,0.813-2.111,0.932c0.976,0.153,1.615,0.319,1.916,0.496
		c0.651,0.391,0.985,1.011,1.002,1.863c0.006,0.426-0.02,0.741-0.08,0.948c-0.153,0.532-0.514,0.894-1.082,1.083
		c-0.65,0.219-1.265,0.328-1.844,0.328c-0.219,0-0.432-0.015-0.639-0.045c-0.431-0.064-0.757-0.154-0.976-0.266
		c-0.609-0.312-0.979-0.934-1.109-1.862c-0.165-1.195-0.248-2.359-0.248-3.495c0-0.419,0.011-0.834,0.035-1.241
		c0.053-0.988,0.53-1.6,1.428-1.837c0.402-0.106,0.804-0.163,1.206-0.168C25.301,12.435,25.701,12.464,26.096,12.529z
		 M24.473,15.244c0.071,0,0.163-0.01,0.275-0.027c0.662-0.101,0.969-0.375,0.923-0.825c-0.041-0.444-0.379-0.657-1.011-0.639
		c-0.621,0.018-0.923,0.29-0.904,0.815C23.773,15.018,24.012,15.244,24.473,15.244z M23.906,18.924
		c0.018,0.332,0.221,0.562,0.612,0.692c0.23,0.077,0.452,0.115,0.665,0.115c0.515,0,0.825-0.171,0.932-0.514
		c0.029-0.094,0.044-0.184,0.044-0.266c0-0.367-0.269-0.629-0.807-0.789c-0.142-0.042-0.284-0.063-0.426-0.063
		c-0.177,0-0.358,0.039-0.541,0.116C24.047,18.357,23.888,18.593,23.906,18.924z"/>
	<path fill="#FFFFFF" d="M34.958,20.458c-0.118,0.172-0.278,0.258-0.479,0.258c-0.113,0-0.228-0.021-0.346-0.062
		c-0.319-0.106-0.509-0.298-0.568-0.577c0.012,0.202-0.118,0.375-0.39,0.524c-0.408,0.224-0.934,0.354-1.579,0.389
		c-0.567,0.029-1.056-0.053-1.463-0.248c-0.485-0.237-0.796-0.607-0.932-1.108c-0.095-0.367-0.16-0.849-0.195-1.446
		c-0.041-0.782-0.074-1.266-0.098-1.456c-0.053-0.384-0.059-0.988-0.018-1.809c0.036-0.751,0.399-1.1,1.091-1.047
		c0.39,0.029,0.626,0.402,0.71,1.117c0.023,0.22,0.027,0.724,0.008,1.517c-0.023,1.011-0.015,1.704,0.027,2.076
		c0.053,0.461,0.37,0.691,0.949,0.691c0.55,0,0.914-0.266,1.091-0.797c0.095-0.279,0.151-0.782,0.168-1.509
		c0.018-0.958,0.03-1.676,0.036-2.155c0.024-0.586,0.266-0.878,0.727-0.878c0.077,0,0.151,0.006,0.222,0.018
		c0.502,0.088,0.754,0.424,0.754,1.01c0,0.16-0.015,0.399-0.044,0.719c-0.029,0.319-0.044,0.559-0.044,0.719
		c0,0.444,0.032,0.902,0.097,1.374c0.124,0.918,0.242,1.509,0.354,1.775c0.048,0.112,0.071,0.233,0.071,0.363
		C35.109,20.13,35.058,20.311,34.958,20.458z"/>
	<path fill="#FFFFFF" d="M39.756,13.442c0.213-0.099,0.411-0.15,0.595-0.15c0.088,0,0.174,0.011,0.257,0.035
		c0.236,0.071,0.402,0.139,0.497,0.205c0.089,0.088,0.142,0.221,0.16,0.399c0.047,0.502,0.083,0.881,0.106,1.135
		c0.023,0.384-0.048,1.227-0.213,2.527c-0.041,0.303-0.071,0.545-0.089,0.729c-0.071,0.621-0.133,1.058-0.186,1.313
		c-0.118,0.544-0.292,0.94-0.523,1.188c-0.289,0.314-0.748,0.476-1.374,0.488c-0.284,0.006-0.589-0.017-0.914-0.07
		c-0.816-0.149-1.318-0.482-1.507-1.003c-0.071-0.195-0.092-0.402-0.062-0.621c0.047-0.378,0.257-0.567,0.63-0.567
		c0.112,0,0.207,0.024,0.284,0.07c0.165,0.101,0.275,0.172,0.329,0.213c0.313,0.172,0.506,0.255,0.576,0.249
		c0.136-0.007,0.322-0.01,0.559-0.01c0.272-0.041,0.465-0.105,0.581-0.191c0.116-0.085,0.202-0.247,0.262-0.483
		c0.083-0.336,0.13-0.632,0.141-0.887c0.018-0.088,0.027-0.154,0.027-0.195c-0.018,0.024-0.118,0.109-0.301,0.256
		c-0.249,0.202-0.704,0.29-1.366,0.266c-0.142-0.006-0.358-0.042-0.648-0.111c-0.29-0.067-0.491-0.132-0.603-0.191
		c-0.071-0.035-0.133-0.074-0.186-0.115c-0.095-0.053-0.192-0.17-0.293-0.346c-0.13-0.219-0.216-0.503-0.257-0.852
		c-0.024-0.071-0.044-0.287-0.062-0.647c-0.023-0.444-0.041-0.751-0.053-0.923c-0.023-0.402-0.041-0.679-0.053-0.834
		c-0.012-0.248,0.077-0.488,0.266-0.719c0.118-0.147,0.272-0.221,0.462-0.221c0.071,0,0.165,0.018,0.284,0.053
		c0.325,0.101,0.491,0.275,0.497,0.524c0.006,0.224,0.009,0.352,0.009,0.381c0.012,0.248,0.018,0.381,0.018,0.399
		c0,0.301-0.009,0.586-0.027,0.852c-0.035,0.544,0.077,0.866,0.337,0.967c0.113,0.041,0.261,0.073,0.443,0.097
		c0.048,0.007,0.178,0.01,0.391,0.01c0.183-0.042,0.319-0.116,0.408-0.223c0.071-0.083,0.142-0.23,0.213-0.443
		c0.048-0.189,0.068-0.524,0.062-1.003c0-0.426,0.018-0.706,0.053-0.842C39.565,13.815,39.656,13.578,39.756,13.442z"/>
	<path fill="#FFFFFF" d="M48.503,14.276c0.213,0.42,0.499,1.131,0.86,2.129c0.225,0.644,0.393,1.126,0.506,1.446
		c0.236,0.657,0.434,1.124,0.594,1.401c0.036,0.066,0.071,0.098,0.106,0.098c0.048,0,0.077-0.104,0.089-0.311
		c0.023-0.354-0.012-1.114-0.106-2.279c-0.095-1.164-0.137-2.181-0.125-3.051c0.012-0.845,0.34-1.268,0.985-1.268
		c0.792,0,1.189,0.644,1.189,1.933c0,0.16-0.009,0.399-0.027,0.719c-0.018,0.319-0.027,0.559-0.027,0.719
		c0,1.584-0.104,2.897-0.31,3.938c-0.089,0.444-0.195,0.766-0.319,0.967c-0.172,0.277-0.45,0.455-0.834,0.532
		c-0.118,0.024-0.243,0.035-0.373,0.035c-0.319,0-0.598-0.091-0.834-0.275c-0.555-0.431-1.141-1.481-1.756-3.149
		c-0.308-0.834-0.523-1.436-0.647-1.809c-0.16-0.485-0.317-0.727-0.47-0.727c-0.03,0-0.057,0.008-0.08,0.027
		c-0.231,0.118-0.346,0.366-0.346,0.744c0,0.084,0.003,0.157,0.008,0.223c0.142,1.531,0.284,2.62,0.426,3.264
		c0.053,0.242,0.08,0.453,0.08,0.629c0,0.284-0.062,0.53-0.186,0.737c-0.148,0.242-0.354,0.363-0.621,0.363
		c-0.42,0-0.704-0.139-0.852-0.416c-0.23-0.426-0.346-1.491-0.346-3.194c0-1.229-0.006-1.964-0.018-2.204s-0.018-0.481-0.018-0.723
		c0-0.799,0.071-1.316,0.213-1.552c0.284-0.479,0.63-0.719,1.037-0.719c0.207,0,0.462,0.05,0.763,0.151
		C47.556,12.819,48.035,13.359,48.503,14.276z"/>
	<path fill="#FFFFFF" d="M57.736,13.825c0.733,0.242,1.215,0.99,1.446,2.243c0.041,0.226,0.109,0.799,0.205,1.722
		c0.011,0.118,0.018,0.251,0.018,0.399c0,0.549-0.12,1.072-0.359,1.565c-0.24,0.495-0.611,0.869-1.113,1.122
		c-0.474,0.242-1,0.349-1.579,0.319c-0.627-0.035-1.118-0.16-1.472-0.373c-0.402-0.248-0.689-0.567-0.86-0.958
		c-0.13-0.296-0.246-0.778-0.346-1.446c-0.095-0.615-0.142-1.114-0.142-1.499c0-0.177,0.009-0.325,0.027-0.443
		c0.083-0.556,0.157-0.937,0.222-1.145c0.118-0.396,0.304-0.73,0.558-1.003c0.45-0.485,1.224-0.7,2.324-0.647
		C57.166,13.705,57.523,13.753,57.736,13.825z M57.549,16.982c-0.041-0.479-0.109-0.843-0.204-1.091
		c-0.165-0.415-0.431-0.623-0.798-0.63c-0.491-0.006-0.825,0.122-1.002,0.382c-0.148,0.219-0.219,0.584-0.213,1.1
		c0.012,0.661,0.032,1.217,0.062,1.667c0.041,0.644,0.254,1.041,0.639,1.188c0.136,0.053,0.275,0.08,0.417,0.08
		c0.249,0,0.494-0.08,0.736-0.24c0.308-0.2,0.462-0.544,0.462-1.028c0-0.064-0.006-0.178-0.018-0.338L57.549,16.982z"/>
	<path fill="#FFFFFF" d="M63.981,20.06l-0.018,0.097c-0.101,0.556-0.455,0.866-1.065,0.932c-0.284,0.029-0.526,0.041-0.727,0.035
		c-0.763-0.024-1.242-0.556-1.437-1.6c-0.149-0.789-0.24-1.384-0.275-1.788l-0.116-1.307c-0.083-0.937-0.124-1.426-0.124-1.467
		c0-0.658,0.34-0.964,1.02-0.916c0.314,0.024,0.53,0.119,0.648,0.284c0.1,0.149,0.151,0.852,0.151,2.11
		c0,0.748,0.056,1.472,0.169,2.173c0.041,0.266,0.189,0.399,0.443,0.399c0.248,0,0.396-0.139,0.443-0.416
		c0.006-0.029,0.024-0.311,0.053-0.843c0.029-0.52,0.029-1.223,0-2.11c-0.041-0.982,0.123-1.503,0.494-1.562
		c0.512-0.077,0.853,0.018,1.024,0.284c0.123,0.2,0.185,0.586,0.185,1.153c0,2.034,0.142,3.198,0.426,3.494
		c0.089,0.09,0.189,0.133,0.301,0.133c0.089,0,0.181-0.027,0.275-0.08c0.26-0.141,0.405-0.565,0.434-1.268
		c0.006-0.112-0.008-0.588-0.044-1.428c-0.024-0.633-0.032-1.027-0.027-1.18c0.029-0.639,0.148-1,0.355-1.083
		c0.106-0.024,0.284-0.043,0.532-0.062c0.249-0.018,0.447,0.112,0.595,0.389c0.112,0.22,0.168,0.468,0.168,0.745
		c0,0.219-0.018,0.633-0.053,1.243c-0.035,0.579-0.023,1.097,0.036,1.552c0.029,0.259,0.085,0.73,0.169,1.409
		c0.023,0.207,0.035,0.391,0.035,0.551c0,0.562-0.153,0.836-0.461,0.825c-0.101-0.007-0.23-0.018-0.39-0.036
		c-0.219-0.083-0.355-0.304-0.408-0.664c-0.077,0.265-0.172,0.446-0.284,0.541c-0.184,0.147-0.438,0.256-0.763,0.328
		c-0.325,0.071-0.598,0.074-0.816,0.008c-0.213-0.064-0.354-0.112-0.426-0.141c-0.095-0.018-0.204-0.122-0.328-0.311
		C64.063,20.314,63.998,20.172,63.981,20.06z"/>
</g>
<g id="XMLID_1458_">
	<defs>
		<rect id="XMLID_1459_" x="-629.756" y="-126.433" width="250.248" height="297.708"/>
	</defs>
	<clipPath id="XMLID_1444_">
		<use xlink:href="#XMLID_1459_"  overflow="visible"/>
	</clipPath>
	<g clip-path="url(#XMLID_1444_)">
		
			<image overflow="visible" width="2576" height="1940" id="XMLID_1460_" xlink:href="Ingenia/Clientes/2016/Kids World /CataÌlogo/Links/PAGINA2.jpg"  transform="matrix(0.2922 0 0 0.2922 -629.7565 -126.4342)">
		</image>
	</g>
</g>
</svg>
