<?xml version="1.0" encoding="utf-8"?>
<!-- Generator: Adobe Illustrator 18.0.0, SVG Export Plug-In . SVG Version: 6.00 Build 0)  -->
<!DOCTYPE svg PUBLIC "-//W3C//DTD SVG 1.1//EN" "http://www.w3.org/Graphics/SVG/1.1/DTD/svg11.dtd" [
	<!ENTITY ns_flows "http://ns.adobe.com/Flows/1.0/">
	<!ENTITY ns_extend "http://ns.adobe.com/Extensibility/1.0/">
	<!ENTITY ns_ai "http://ns.adobe.com/AdobeIllustrator/10.0/">
	<!ENTITY ns_graphs "http://ns.adobe.com/Graphs/1.0/">
]>
<svg version="1.1" id="Layer_1" xmlns:x="&ns_extend;" xmlns:i="&ns_ai;" xmlns:graph="&ns_graphs;"
	 xmlns="http://www.w3.org/2000/svg" xmlns:xlink="http://www.w3.org/1999/xlink" xmlns:a="http://ns.adobe.com/AdobeSVGViewerExtensions/3.0/"
	 x="0px" y="0px" width="129.874px" height="45.274px" viewBox="0 0 129.874 45.274" enable-background="new 0 0 129.874 45.274"
	 xml:space="preserve">
<path id="XMLID_2479_" fill="#8DC63F" d="M106.967,3.671v-0.03l-42.03,0.245L22.907,3.641v0.03
	C11.454,4.083,2.34,12.509,2.428,22.789c0.085,10.279,9.34,18.551,20.797,18.771v0.03l20.875,0.014v0.029l20.837-0.014l20.837,0.014
	v-0.029l20.875-0.014l0.001-0.03c11.458-0.22,20.71-8.492,20.798-18.771C127.532,12.509,118.419,4.083,106.967,3.671z"/>
<g>
	<path fill="#FFFFFF" d="M34.131,14.598c1.591,0.257,2.495,1.119,2.714,2.586c0.029,0.191,0.043,0.352,0.043,0.486
		c0,0.695-0.219,1.376-0.657,2.043c-0.533,0.81-1.666,1.309-3.399,1.5c1.571,0.248,2.6,0.514,3.086,0.8
		c1.047,0.629,1.585,1.629,1.614,3c0.009,0.686-0.034,1.195-0.129,1.529c-0.248,0.857-0.829,1.438-1.743,1.743
		c-1.048,0.352-2.038,0.529-2.971,0.529c-0.353,0-0.695-0.024-1.029-0.071c-0.695-0.105-1.219-0.248-1.571-0.429
		c-0.98-0.505-1.576-1.505-1.785-3c-0.267-1.924-0.4-3.8-0.4-5.628c0-0.676,0.02-1.343,0.058-2c0.085-1.59,0.852-2.576,2.3-2.957
		c0.647-0.172,1.295-0.262,1.942-0.271S33.493,14.494,34.131,14.598z M31.517,18.97c0.114,0,0.262-0.014,0.443-0.043
		c1.066-0.162,1.562-0.604,1.485-1.328c-0.066-0.714-0.609-1.057-1.629-1.029c-1,0.029-1.485,0.467-1.457,1.314
		C30.388,18.608,30.774,18.97,31.517,18.97z M30.603,24.898c0.028,0.533,0.357,0.905,0.985,1.114
		c0.372,0.124,0.729,0.186,1.071,0.186c0.829,0,1.329-0.276,1.5-0.828c0.048-0.152,0.071-0.295,0.071-0.429
		c0-0.59-0.433-1.014-1.3-1.271c-0.229-0.067-0.457-0.1-0.686-0.1c-0.285,0-0.576,0.062-0.871,0.186
		C30.831,23.984,30.574,24.365,30.603,24.898z"/>
	<path fill="#FFFFFF" d="M48.402,27.369c-0.19,0.276-0.447,0.414-0.771,0.414c-0.181,0-0.366-0.033-0.557-0.1
		c-0.515-0.172-0.819-0.481-0.914-0.929c0.019,0.324-0.191,0.605-0.629,0.843c-0.657,0.362-1.505,0.571-2.543,0.628
		c-0.914,0.048-1.7-0.086-2.356-0.4c-0.781-0.381-1.281-0.976-1.5-1.786c-0.152-0.591-0.258-1.366-0.314-2.329
		c-0.067-1.257-0.119-2.038-0.157-2.343c-0.086-0.619-0.096-1.59-0.028-2.914c0.057-1.209,0.643-1.771,1.757-1.686
		c0.629,0.048,1.009,0.648,1.143,1.8c0.038,0.353,0.043,1.167,0.015,2.443c-0.038,1.629-0.024,2.743,0.043,3.343
		c0.085,0.743,0.595,1.114,1.528,1.114c0.886,0,1.472-0.428,1.757-1.286c0.152-0.448,0.243-1.257,0.271-2.428
		c0.028-1.543,0.048-2.7,0.058-3.471c0.037-0.943,0.428-1.414,1.171-1.414c0.124,0,0.243,0.01,0.357,0.029
		c0.81,0.143,1.214,0.686,1.214,1.629c0,0.257-0.023,0.643-0.071,1.157c-0.048,0.514-0.071,0.9-0.071,1.157
		c0,0.714,0.052,1.452,0.157,2.214c0.2,1.476,0.391,2.429,0.571,2.857c0.076,0.181,0.114,0.376,0.114,0.586
		C48.645,26.841,48.564,27.131,48.402,27.369z"/>
	<path fill="#FFFFFF" d="M56.13,16.07c0.343-0.162,0.662-0.243,0.957-0.243c0.143,0,0.281,0.019,0.414,0.057
		c0.381,0.114,0.647,0.224,0.801,0.329c0.143,0.143,0.229,0.357,0.257,0.643c0.076,0.81,0.133,1.419,0.171,1.829
		c0.038,0.619-0.076,1.976-0.343,4.071c-0.066,0.486-0.114,0.876-0.143,1.171c-0.114,1-0.214,1.705-0.3,2.114
		c-0.19,0.876-0.472,1.514-0.843,1.914c-0.467,0.505-1.205,0.767-2.215,0.786c-0.457,0.009-0.947-0.029-1.471-0.115
		c-1.314-0.238-2.124-0.776-2.429-1.614c-0.114-0.314-0.147-0.648-0.1-1c0.076-0.609,0.414-0.914,1.014-0.914
		c0.181,0,0.333,0.038,0.457,0.114c0.267,0.162,0.443,0.276,0.529,0.343c0.504,0.276,0.813,0.409,0.928,0.4
		c0.22-0.01,0.52-0.014,0.9-0.014c0.438-0.066,0.75-0.169,0.936-0.307c0.186-0.138,0.326-0.397,0.422-0.779
		c0.133-0.543,0.209-1.019,0.229-1.428c0.028-0.143,0.043-0.248,0.043-0.314c-0.029,0.038-0.191,0.176-0.486,0.414
		c-0.399,0.324-1.133,0.467-2.2,0.429c-0.229-0.01-0.576-0.069-1.042-0.179c-0.467-0.109-0.791-0.212-0.972-0.307
		c-0.114-0.057-0.215-0.119-0.3-0.186c-0.152-0.086-0.31-0.271-0.472-0.557c-0.21-0.352-0.348-0.809-0.414-1.372
		c-0.038-0.114-0.071-0.462-0.101-1.043c-0.038-0.714-0.066-1.209-0.085-1.486c-0.039-0.648-0.067-1.095-0.086-1.343
		c-0.02-0.4,0.123-0.786,0.429-1.157c0.19-0.238,0.438-0.357,0.742-0.357c0.114,0,0.267,0.029,0.457,0.086
		c0.524,0.162,0.791,0.443,0.801,0.843c0.009,0.362,0.014,0.567,0.014,0.615c0.02,0.4,0.028,0.614,0.028,0.643
		c0,0.486-0.014,0.943-0.042,1.371c-0.058,0.876,0.123,1.395,0.542,1.557c0.182,0.067,0.419,0.119,0.715,0.157
		c0.076,0.01,0.285,0.014,0.628,0.014c0.296-0.067,0.515-0.186,0.657-0.357c0.114-0.133,0.229-0.371,0.343-0.714
		c0.076-0.305,0.109-0.843,0.101-1.614c0-0.686,0.028-1.138,0.086-1.357C55.821,16.67,55.968,16.289,56.13,16.07z"/>
	<path fill="#FFFFFF" d="M70.215,17.412c0.343,0.676,0.805,1.819,1.386,3.428c0.361,1.038,0.633,1.814,0.813,2.329
		c0.381,1.057,0.7,1.809,0.957,2.257c0.058,0.105,0.114,0.157,0.172,0.157c0.076,0,0.124-0.167,0.143-0.5
		c0.038-0.571-0.019-1.795-0.171-3.671s-0.22-3.514-0.2-4.914c0.019-1.362,0.548-2.043,1.586-2.043c1.275,0,1.914,1.038,1.914,3.114
		c0,0.257-0.015,0.643-0.043,1.157c-0.028,0.514-0.043,0.9-0.043,1.157c0,2.552-0.167,4.667-0.5,6.343
		c-0.143,0.714-0.314,1.233-0.515,1.557c-0.275,0.448-0.724,0.733-1.343,0.857c-0.19,0.038-0.391,0.057-0.6,0.057
		c-0.515,0-0.962-0.148-1.343-0.443c-0.896-0.695-1.838-2.386-2.828-5.071c-0.496-1.343-0.843-2.314-1.043-2.914
		c-0.258-0.781-0.51-1.171-0.758-1.171c-0.047,0-0.09,0.014-0.128,0.043c-0.372,0.191-0.558,0.591-0.558,1.2
		c0,0.134,0.005,0.252,0.015,0.357c0.229,2.467,0.457,4.219,0.686,5.257c0.086,0.39,0.129,0.729,0.129,1.014
		c0,0.457-0.101,0.852-0.3,1.186c-0.238,0.39-0.572,0.586-1,0.586c-0.677,0-1.134-0.224-1.372-0.672
		c-0.371-0.686-0.557-2.4-0.557-5.143c0-1.981-0.01-3.164-0.028-3.55c-0.02-0.385-0.029-0.773-0.029-1.164
		c0-1.286,0.114-2.119,0.343-2.5c0.457-0.771,1.015-1.157,1.672-1.157c0.333,0,0.743,0.081,1.229,0.243
		C68.691,15.065,69.462,15.936,70.215,17.412z"/>
	<path fill="#FFFFFF" d="M85.085,16.684c1.182,0.391,1.957,1.595,2.329,3.614c0.066,0.362,0.176,1.286,0.328,2.771
		c0.02,0.191,0.028,0.405,0.028,0.643c0,0.886-0.192,1.726-0.578,2.521c-0.386,0.795-0.983,1.397-1.793,1.807
		c-0.762,0.39-1.609,0.562-2.543,0.514c-1.009-0.057-1.8-0.257-2.371-0.6c-0.647-0.4-1.109-0.914-1.386-1.543
		c-0.209-0.476-0.396-1.252-0.557-2.329c-0.152-0.99-0.229-1.795-0.229-2.414c0-0.286,0.014-0.524,0.043-0.714
		c0.133-0.895,0.252-1.509,0.356-1.843c0.19-0.638,0.49-1.176,0.9-1.614c0.724-0.781,1.971-1.128,3.742-1.043
		C84.166,16.494,84.742,16.57,85.085,16.684z M84.785,21.769c-0.066-0.771-0.176-1.357-0.328-1.757
		c-0.267-0.667-0.695-1.005-1.286-1.014c-0.79-0.01-1.328,0.195-1.614,0.614c-0.238,0.353-0.353,0.943-0.343,1.771
		c0.02,1.067,0.053,1.962,0.101,2.686c0.066,1.038,0.409,1.676,1.028,1.914c0.219,0.086,0.442,0.128,0.671,0.128
		c0.4,0,0.795-0.128,1.186-0.386c0.495-0.323,0.743-0.876,0.743-1.657c0-0.105-0.01-0.286-0.028-0.543L84.785,21.769z"/>
	<path fill="#FFFFFF" d="M95.143,26.726l-0.028,0.157c-0.162,0.895-0.734,1.395-1.715,1.5c-0.457,0.047-0.848,0.066-1.171,0.057
		c-1.229-0.038-2-0.897-2.314-2.578c-0.238-1.27-0.386-2.229-0.443-2.878l-0.186-2.105c-0.133-1.508-0.2-2.296-0.2-2.363
		c0-1.06,0.548-1.551,1.644-1.475c0.504,0.038,0.852,0.191,1.043,0.458c0.161,0.239,0.242,1.372,0.242,3.398
		c0,1.205,0.091,2.371,0.271,3.498c0.066,0.43,0.305,0.645,0.715,0.645c0.399,0,0.638-0.224,0.714-0.671
		c0.01-0.048,0.038-0.5,0.086-1.357c0.047-0.838,0.047-1.971,0-3.4c-0.067-1.581,0.198-2.419,0.796-2.514
		c0.824-0.124,1.373,0.029,1.648,0.457c0.198,0.324,0.298,0.943,0.298,1.857c0,3.276,0.229,5.152,0.686,5.628
		c0.144,0.143,0.305,0.214,0.486,0.214c0.143,0,0.29-0.043,0.442-0.128c0.419-0.229,0.652-0.909,0.7-2.043
		c0.01-0.181-0.015-0.948-0.071-2.3c-0.038-1.019-0.053-1.652-0.043-1.9c0.048-1.029,0.238-1.609,0.571-1.743
		c0.172-0.038,0.457-0.071,0.857-0.1c0.399-0.029,0.719,0.181,0.957,0.628c0.181,0.353,0.271,0.752,0.271,1.2
		c0,0.353-0.028,1.019-0.086,2c-0.057,0.933-0.038,1.767,0.058,2.5c0.047,0.419,0.138,1.176,0.271,2.271
		c0.037,0.333,0.057,0.629,0.057,0.886c0,0.905-0.248,1.347-0.743,1.329c-0.162-0.01-0.371-0.029-0.628-0.057
		c-0.353-0.134-0.571-0.491-0.657-1.072c-0.124,0.429-0.276,0.719-0.457,0.872c-0.296,0.238-0.705,0.414-1.229,0.528
		c-0.524,0.115-0.962,0.119-1.314,0.014c-0.343-0.105-0.571-0.181-0.686-0.229c-0.152-0.029-0.329-0.195-0.528-0.5
		C95.276,27.136,95.171,26.907,95.143,26.726z"/>
</g>
<g id="XMLID_54_">
	<defs>
		<rect id="XMLID_1429_" x="-857.922" y="-46.208" width="297.445" height="350.108"/>
	</defs>
	<clipPath id="XMLID_1444_">
		<use xlink:href="#XMLID_1429_"  overflow="visible"/>
	</clipPath>
	<g clip-path="url(#XMLID_1444_)">
		
			<image overflow="visible" width="2576" height="1940" id="XMLID_1434_" xlink:href="Ingenia/Clientes/2016/Kids World /CataÌlogo/Links/PAGINA2.jpg"  transform="matrix(0.3436 0 0 0.3436 -857.9225 -46.2087)">
		</image>
	</g>
</g>
</svg>
